<svg width="225" height="203" viewBox="0 0 225 203" fill="none" xmlns="http://www.w3.org/2000/svg">
<path d="M150.699 138.04L138.392 126.904L130.188 134.327L142.495 145.462C144.762 147.513 148.436 147.513 150.699 145.462C152.961 143.411 152.965 140.09 150.699 138.04ZM162.302 75.0485L149.995 63.9131L141.791 71.3355L154.098 82.4709C156.365 84.5216 160.039 84.5216 162.302 82.4709C164.564 80.4202 164.568 77.0992 162.302 75.0485ZM62.2683 138.04L74.5752 126.904L82.7785 134.327L70.4716 145.462C68.2052 147.513 64.5309 147.513 62.2683 145.462C60.0057 143.411 60.0018 140.09 62.2683 138.04ZM49.6984 75.0485L62.0053 63.9131L70.2086 71.3355L57.9017 82.4709C55.6353 84.5216 51.961 84.5216 49.6984 82.4709C47.4358 80.4202 47.4319 77.0992 49.6984 75.0485Z" fill="#FFCC80"/>
<path d="M161.171 17.5761C161.171 10.3694 156.643 6.39133 148.438 6.39133C140.233 6.39133 133.585 15.9618 133.585 23.1685C133.585 26.8968 141.163 28.7609 145.408 28.7609C153.612 28.7609 161.171 24.7828 161.171 17.5761ZM50.8293 17.5761C50.8293 10.3694 55.3572 6.39133 63.5619 6.39133C71.7666 6.39133 78.4146 15.9618 78.4146 23.1685C78.4146 26.8968 70.8365 28.7609 66.5923 28.7609C58.3877 28.7609 50.8293 24.7828 50.8293 17.5761Z" fill="#4DD0E1"/>
<path d="M146.199 15.9783C145.23 15.9783 144.3 16.1466 143.615 16.4463C142.93 16.7459 142.545 17.1523 142.545 17.5761C142.545 17.9999 142.93 18.4063 143.615 18.7059C144.3 19.0056 145.23 19.1739 146.199 19.1739C147.168 19.1739 148.098 19.0056 148.783 18.7059C149.469 18.4063 149.854 17.9999 149.854 17.5761C149.854 17.1523 149.469 16.7459 148.783 16.4463C148.098 16.1466 147.168 15.9783 146.199 15.9783ZM65.8008 15.9783C64.8316 15.9783 63.9021 16.1466 63.2167 16.4463C62.5314 16.7459 62.1463 17.1523 62.1463 17.5761C62.1463 17.9999 62.5314 18.4063 63.2167 18.7059C63.9021 19.0056 64.8316 19.1739 65.8008 19.1739C66.77 19.1739 67.6996 19.0056 68.3849 18.7059C69.0703 18.4063 69.4553 17.9999 69.4553 17.5761C69.4553 17.1523 69.0703 16.7459 68.3849 16.4463C67.6996 16.1466 66.77 15.9783 65.8008 15.9783Z" fill="#424242"/>
<path d="M155.512 108.73C155.512 125.475 143.252 143.804 104.819 143.804C73.8856 143.804 56.4878 125.475 56.4878 108.73C56.4878 91.193 60.2964 88.366 60.2964 73.6559C60.2964 57.2131 60.2964 49.1039 60.2964 38.5817C60.2964 21.8372 72.0118 0 104.819 0C137.627 0 151.704 13.9981 151.704 35.0742C151.704 45.5965 150.801 54.2002 151.704 70.1485C152.412 82.6419 155.512 98.2078 155.512 108.73Z" fill="#4DD0E1"/>
<path d="M125.166 10.5577C121.107 10.5577 117.215 12.0408 114.346 14.6807C111.476 17.3207 109.864 20.9012 109.864 24.6346C109.864 28.3681 111.476 31.9486 114.346 34.5885C117.215 37.2285 121.107 38.7116 125.166 38.7116C129.224 38.7116 133.116 37.2285 135.986 34.5885C138.855 31.9486 140.468 28.3681 140.468 24.6346C140.468 20.9012 138.855 17.3207 135.986 14.6807C133.116 12.0408 129.224 10.5577 125.166 10.5577ZM86.9109 10.5577C82.8526 10.5577 78.9605 12.0408 76.0908 14.6807C73.2212 17.3207 71.609 20.9012 71.609 24.6346C71.609 28.3681 73.2212 31.9486 76.0908 34.5885C78.9605 37.2285 82.8526 38.7116 86.9109 38.7116C90.9692 38.7116 94.8613 37.2285 97.731 34.5885C100.601 31.9486 102.213 28.3681 102.213 24.6346C102.213 20.9012 100.601 17.3207 97.731 14.6807C94.8613 12.0408 90.9692 10.5577 86.9109 10.5577Z" fill="#F5F5F5"/>
<path d="M106.038 59.8269C106.038 61.7695 107.752 63.3461 109.864 63.3461C111.975 63.3461 113.689 61.7695 113.689 59.8269V49.2692H106.038V59.8269ZM98.3873 59.8269C98.3873 61.7695 100.101 63.3461 102.213 63.3461C104.324 63.3461 106.038 61.7695 106.038 59.8269V49.2692H98.3873V59.8269Z" fill="#EEEEEE"/>
<path d="M115.726 54.3261C114.123 54.3261 113.185 53.9866 111.793 53.5072C108 52.197 103.93 52.205 100.137 53.5152C98.7564 53.9906 97.8694 54.3261 96.2744 54.3261C91.0848 54.3261 90.439 50.3315 90.439 48.3343C90.439 42.3424 96.2744 38.3478 102.11 38.3478C105.358 38.3478 106.642 38.3478 109.89 38.3478C115.726 38.3478 121.561 42.3424 121.561 48.3343C121.561 50.3315 120.915 54.3261 115.726 54.3261Z" fill="#FFCC80"/>
<path d="M117.515 21.1154C116.5 21.1154 115.527 21.4862 114.81 22.1461C114.092 22.8061 113.689 23.7013 113.689 24.6346C113.689 25.568 114.092 26.4631 114.81 27.1231C115.527 27.7831 116.5 28.1538 117.515 28.1538C118.529 28.1538 119.502 27.7831 120.22 27.1231C120.937 26.4631 121.34 25.568 121.34 24.6346C121.34 23.7013 120.937 22.8061 120.22 22.1461C119.502 21.4862 118.529 21.1154 117.515 21.1154ZM79.2599 21.1154C78.2453 21.1154 77.2723 21.4862 76.5549 22.1461C75.8375 22.8061 75.4344 23.7013 75.4344 24.6346C75.4344 25.568 75.8375 26.4631 76.5549 27.1231C77.2723 27.7831 78.2453 28.1538 79.2599 28.1538C80.2745 28.1538 81.2475 27.7831 81.9649 27.1231C82.6823 26.4631 83.0854 25.568 83.0854 24.6346C83.0854 23.7013 82.6823 22.8061 81.9649 22.1461C81.2475 21.4862 80.2745 21.1154 79.2599 21.1154ZM106.038 35.1923C104.009 35.1923 102.063 35.5631 100.628 36.2231C99.1934 36.8831 98.3873 37.7782 98.3873 38.7115C98.3873 39.6449 99.1934 40.54 100.628 41.2C102.063 41.86 104.009 42.2308 106.038 42.2308C108.067 42.2308 110.013 41.86 111.448 41.2C112.883 40.54 113.689 39.6449 113.689 38.7115C113.689 37.7782 112.883 36.8831 111.448 36.2231C110.013 35.5631 108.067 35.1923 106.038 35.1923Z" fill="#424242"/>
<path d="M25.344 171.04C26.8373 173.557 28.3307 175.797 29.824 177.76C31.36 179.68 33.3653 182.048 35.84 184.864C36.1387 185.163 36.288 185.504 36.288 185.888C36.288 186.485 35.9467 186.997 35.264 187.424C34.624 187.851 33.8347 188.064 32.896 188.064C31.5733 188.064 30.144 187.509 28.608 186.4C27.2427 185.419 26.0267 184.117 24.96 182.496C23.8933 180.875 22.656 178.763 21.248 176.16C20.1387 174.155 19.4773 172.981 19.264 172.64C17.6 173.323 14.9973 173.749 11.456 173.92C11.456 175.371 11.584 177.333 11.84 179.808C12.096 182.368 12.224 184.224 12.224 185.376C12.224 186.144 11.84 186.784 11.072 187.296C10.3467 187.808 9.51467 188.064 8.576 188.064C7.46667 188.064 6.61333 187.616 6.016 186.72C5.41867 185.525 5.03467 184.096 4.864 182.432C4.69333 180.768 4.608 178.784 4.608 176.48C4.608 174.048 4.75733 171.296 5.056 168.224C5.312 164.811 5.44 162.293 5.44 160.672C5.44 159.349 5.312 157.579 5.056 155.36C5.01333 154.976 4.94933 154.315 4.864 153.376C4.77867 152.437 4.736 151.584 4.736 150.816C4.736 150.219 4.94933 149.707 5.376 149.28C5.84533 148.811 6.336 148.491 6.848 148.32C10.304 147.765 13.6747 147.488 16.96 147.488C22.5493 147.488 27.1787 148.533 30.848 150.624C34.5173 152.715 36.352 155.893 36.352 160.16C36.352 161.483 36.0533 162.763 35.456 164C34.9013 165.195 34.1333 166.197 33.152 167.008C30.5493 169.013 27.9467 170.357 25.344 171.04ZM29.632 159.968C29.632 157.92 28.544 156.256 26.368 154.976C24.192 153.653 21.0987 152.992 17.088 152.992C15.296 152.992 13.5253 153.205 11.776 153.632L11.84 156.896C11.84 158.773 11.776 160.608 11.648 162.4C11.52 164.192 11.456 166.112 11.456 168.16C12.1813 167.989 12.9493 167.883 13.76 167.84C14.5707 167.755 15.104 167.691 15.36 167.648C17.2373 167.477 18.688 167.264 19.712 167.008C21.632 166.411 23.2107 165.877 24.448 165.408C25.728 164.896 26.9013 164.192 27.968 163.296C29.0773 162.357 29.632 161.248 29.632 159.968ZM41.13 174.432C41.13 172.811 41.4287 171.189 42.026 169.568C42.6233 167.904 43.4127 166.389 44.394 165.024C45.3753 163.659 46.9327 162.549 49.066 161.696C51.1993 160.8 53.098 160.352 54.762 160.352C56.4687 160.352 58.1967 160.587 59.946 161.056C61.738 161.525 62.9753 162.251 63.658 163.232C65.2367 165.451 66.026 167.627 66.026 169.76C66.026 170.912 65.77 171.893 65.258 172.704C64.7887 173.515 64.106 174.389 63.21 175.328C62.4847 176.096 61.3327 176.608 59.754 176.864C58.218 177.12 56.682 177.248 55.146 177.248C54.1647 177.248 52.97 177.163 51.562 176.992C50.154 176.779 48.7887 176.523 47.466 176.224C47.5513 177.077 47.7647 177.909 48.106 178.72C48.4473 179.531 48.8527 180.149 49.322 180.576C50.1753 181.387 51.05 181.899 51.946 182.112C52.8847 182.325 54.0793 182.432 55.53 182.432C57.066 182.432 58.4953 182.176 59.818 181.664C60.8847 181.28 61.7593 181.088 62.442 181.088C63.2527 181.088 63.8713 181.344 64.298 181.856C64.7247 182.325 64.938 182.944 64.938 183.712C64.938 184.779 64.3193 185.653 63.082 186.336C61.8447 187.019 60.4153 187.531 58.794 187.872C57.2153 188.171 55.9353 188.32 54.954 188.32C52.9487 188.32 51.0073 187.957 49.13 187.232C47.2527 186.507 45.6953 185.483 44.458 184.16C43.434 182.965 42.6233 181.536 42.026 179.872C41.4287 178.165 41.13 176.352 41.13 174.432ZM55.082 165.792C54.1433 165.792 53.2047 165.984 52.266 166.368C51.3273 166.709 50.5593 167.2 49.962 167.84C49.194 168.651 48.6607 169.312 48.362 169.824C48.106 170.293 47.9353 170.955 47.85 171.808C48.9167 172.149 51.1353 172.32 54.506 172.32C56.3407 172.32 57.7487 172.043 58.73 171.488C59.754 170.933 60.266 170.208 60.266 169.312C60.266 168.416 59.7113 167.605 58.602 166.88C57.4927 166.155 56.3193 165.792 55.082 165.792ZM95.502 160.16C96.142 160.16 96.7607 160.352 97.358 160.736C97.998 161.077 98.318 161.653 98.318 162.464C98.318 163.019 98.062 164.277 97.55 166.24C97.166 167.776 96.9527 168.736 96.91 169.12C96.398 173.045 96.142 178.613 96.142 185.824C96.142 188 96.206 189.792 96.334 191.2C96.462 192.651 96.6327 194.4 96.846 196.448C97.0167 197.899 97.102 198.752 97.102 199.008C97.102 199.904 96.8033 200.672 96.206 201.312C95.6087 201.995 94.926 202.336 94.158 202.336C93.134 202.336 92.3873 202.123 91.918 201.696C91.4913 201.269 91.1927 200.651 91.022 199.84C90.8087 198.347 90.5953 196.469 90.382 194.208C90.2113 191.989 90.126 190.027 90.126 188.32C90.126 187.339 90.1473 186.4 90.19 185.504C90.2327 184.608 90.254 184.011 90.254 183.712C89.4433 184.693 88.27 185.461 86.734 186.016C85.2407 186.528 83.8327 186.784 82.51 186.784C80.846 186.784 79.438 186.571 78.286 186.144C77.1767 185.675 76.0033 184.821 74.766 183.584C73.6993 182.517 72.8247 181.301 72.142 179.936C71.502 178.571 71.182 177.141 71.182 175.648C71.182 173.643 71.3953 171.701 71.822 169.824C72.2487 167.947 72.9313 166.368 73.87 165.088C75.2353 163.509 76.8993 162.336 78.862 161.568C80.8247 160.757 82.83 160.352 84.878 160.352C85.9873 160.352 87.1607 160.608 88.398 161.12C89.6353 161.632 90.7447 162.293 91.726 163.104C92.11 162.123 92.6433 161.397 93.326 160.928C94.0087 160.416 94.734 160.16 95.502 160.16ZM83.47 181.6C84.7073 181.6 85.9447 181.195 87.182 180.384C88.462 179.573 89.294 178.528 89.678 177.248C89.9767 175.328 90.1687 172.469 90.254 168.672C89.5713 167.776 88.718 167.115 87.694 166.688C86.67 166.219 85.774 165.984 85.006 165.984C84.0247 165.984 82.958 166.176 81.806 166.56C80.6967 166.944 79.8647 167.499 79.31 168.224C78.1153 170.059 77.518 172.256 77.518 174.816C77.518 175.925 77.6247 176.864 77.838 177.632C78.0513 178.4 78.478 179.04 79.118 179.552C79.9287 180.192 80.654 180.704 81.294 181.088C81.9767 181.429 82.702 181.6 83.47 181.6ZM107.644 160.224C110.46 160.224 111.868 162.08 111.868 165.792C111.868 166.261 111.825 167.307 111.74 168.928C111.655 170.805 111.612 172.277 111.612 173.344C111.612 176.331 112.017 178.741 112.828 180.576C113.127 181.173 113.66 181.643 114.428 181.984C115.239 182.325 115.921 182.496 116.476 182.496C117.329 182.496 118.033 182.389 118.588 182.176C119.143 181.963 119.655 181.643 120.124 181.216C120.636 180.789 121.127 180.32 121.596 179.808C122.407 178.912 122.919 177.888 123.132 176.736C123.388 175.541 123.537 173.963 123.58 172C123.58 170.763 123.644 169.568 123.772 168.416C124.028 166.539 124.156 164.789 124.156 163.168C124.156 162.272 124.391 161.525 124.86 160.928C125.372 160.288 126.097 159.968 127.036 159.968C127.505 159.968 128.06 160.139 128.7 160.48C129.383 160.779 129.831 161.12 130.044 161.504C130.343 162.016 130.492 162.72 130.492 163.616C130.492 164.171 130.428 164.683 130.3 165.152C130.087 165.792 129.98 166.603 129.98 167.584C129.98 168.096 130.023 168.949 130.108 170.144C130.236 171.04 130.3 171.957 130.3 172.896C130.3 175.755 130.513 177.867 130.94 179.232C131.409 180.683 132.049 181.963 132.86 183.072C133.713 183.968 134.289 184.629 134.588 185.056C134.887 185.44 135.036 185.781 135.036 186.08C135.036 186.592 134.78 187.083 134.268 187.552C133.756 188.021 133.223 188.256 132.668 188.256C131.089 188.256 129.703 187.723 128.508 186.656C127.356 185.547 126.503 184.139 125.948 182.432C125.479 182.987 124.86 183.669 124.092 184.48C123.324 185.291 122.599 185.952 121.916 186.464C120.252 187.659 118.119 188.256 115.516 188.256C114.449 188.256 113.276 187.936 111.996 187.296C110.759 186.656 109.628 185.824 108.604 184.8C107.58 183.733 106.876 182.603 106.492 181.408C106.449 181.323 106.321 180.981 106.108 180.384C105.937 179.787 105.852 178.891 105.852 177.696L105.788 167.456C105.788 166.859 105.639 165.92 105.34 164.64C105.084 163.787 104.956 163.147 104.956 162.72C104.956 161.995 105.191 161.397 105.66 160.928C106.172 160.459 106.833 160.224 107.644 160.224ZM139.318 173.536C139.318 172 139.595 170.571 140.15 169.248C140.704 167.883 141.515 166.475 142.582 165.024C143.648 163.573 145.12 162.443 146.998 161.632C148.875 160.779 150.923 160.352 153.142 160.352C154.848 160.352 156.491 160.715 158.07 161.44C159.691 162.123 161.142 162.976 162.422 164C162.592 164.299 162.891 164.853 163.318 165.664C163.744 166.432 164.043 167.136 164.214 167.776C164.427 168.416 164.534 169.077 164.534 169.76C164.534 172.619 163.488 174.539 161.398 175.52C159.307 176.459 156.662 176.928 153.462 176.928C150.262 176.928 147.659 176.715 145.654 176.288C145.739 177.099 145.952 177.909 146.294 178.72C146.635 179.531 147.04 180.149 147.51 180.576C148.363 181.387 149.195 181.92 150.006 182.176C150.859 182.389 151.99 182.496 153.398 182.496C155.531 182.496 157.195 182.091 158.39 181.28C159.499 180.555 160.352 180.192 160.95 180.192C161.76 180.192 162.379 180.448 162.806 180.96C163.232 181.429 163.446 182.048 163.446 182.816C163.446 184.437 162.4 185.76 160.31 186.784C158.262 187.808 155.936 188.32 153.333 188.32C151.286 188.32 149.259 187.957 147.254 187.232C145.248 186.507 143.648 185.483 142.454 184.16C141.643 182.795 140.918 181.131 140.278 179.168C139.638 177.205 139.318 175.328 139.318 173.536ZM153.398 165.6C152.459 165.6 151.478 165.771 150.454 166.112C149.472 166.411 148.704 166.88 148.15 167.52C147.467 168.245 146.955 168.907 146.614 169.504C146.315 170.101 146.123 170.848 146.038 171.744C146.507 171.744 146.955 171.765 147.382 171.808C147.808 171.851 148.214 171.893 148.598 171.936C150.475 172.107 151.883 172.192 152.822 172.192C154.699 172.192 156.128 171.915 157.11 171.36C158.134 170.805 158.646 170.059 158.646 169.12C158.646 168.224 158.07 167.413 156.918 166.688C155.808 165.963 154.635 165.6 153.398 165.6ZM188.625 174.176C188.966 174.389 189.627 174.795 190.609 175.392C191.633 175.947 192.315 176.608 192.657 177.376C192.998 178.144 193.169 179.211 193.169 180.576C193.169 182.112 192.721 183.477 191.825 184.672C190.929 185.824 189.777 186.72 188.369 187.36C187.387 187.787 186.321 188.043 185.169 188.128C184.059 188.213 182.715 188.256 181.137 188.256C180.283 188.256 179.174 188.128 177.809 187.872C176.486 187.616 175.569 187.381 175.057 187.168C173.691 186.4 172.539 185.504 171.601 184.48C170.662 183.456 170.193 182.411 170.193 181.344C170.193 180.491 170.47 179.808 171.025 179.296C171.579 178.784 172.305 178.528 173.201 178.528C173.67 178.528 174.118 178.656 174.545 178.912C175.014 179.125 175.334 179.381 175.505 179.68C175.974 180.789 176.763 181.621 177.873 182.176C178.982 182.731 180.113 183.008 181.265 183.008C185.318 183.008 187.345 182.283 187.345 180.832C187.345 180.448 187.238 180.149 187.025 179.936C186.854 179.68 186.598 179.424 186.257 179.168C185.702 178.784 184.913 178.379 183.889 177.952C182.907 177.525 182.033 177.205 181.265 176.992C179.515 176.608 177.809 176.032 176.145 175.264C174.609 174.496 173.35 173.493 172.369 172.256C171.387 170.976 170.897 169.419 170.897 167.584C170.897 166.475 171.302 165.387 172.113 164.32C172.966 163.211 173.947 162.379 175.057 161.824C175.825 161.525 177.083 161.205 178.833 160.864C180.582 160.523 181.777 160.352 182.417 160.352C183.398 160.352 184.465 160.459 185.617 160.672C186.769 160.843 187.643 161.141 188.241 161.568C189.393 162.251 190.331 162.976 191.057 163.744C191.782 164.469 192.145 165.301 192.145 166.24C192.145 166.709 192.038 167.221 191.825 167.776C191.611 168.288 191.355 168.608 191.057 168.736C190.417 169.035 189.67 169.184 188.817 169.184C188.433 169.184 188.113 169.077 187.857 168.864C187.643 168.651 187.345 168.309 186.961 167.84C186.491 167.115 186.043 166.688 185.617 166.56C185.105 166.432 184.358 166.283 183.377 166.112C182.395 165.899 181.734 165.792 181.393 165.792C180.326 165.792 179.302 166.005 178.321 166.432C177.382 166.859 176.913 167.435 176.913 168.16C176.913 169.013 177.617 169.739 179.025 170.336C179.921 170.763 180.902 171.125 181.969 171.424C183.078 171.723 183.761 171.915 184.017 172C184.614 172.128 185.382 172.427 186.321 172.896C187.302 173.365 188.07 173.792 188.625 174.176ZM199.333 165.856C198.735 165.771 198.245 165.515 197.861 165.088C197.519 164.661 197.349 164.149 197.349 163.552C197.349 163.253 197.413 162.933 197.541 162.592C197.711 162.251 197.946 161.952 198.245 161.696C198.799 161.227 199.546 160.779 200.485 160.352C201.466 159.968 202.17 159.499 202.597 158.944C203.023 158.389 203.237 157.344 203.237 155.808C203.237 155.168 203.194 154.613 203.109 154.144C203.066 153.675 203.045 153.312 203.045 153.056C203.045 152.117 203.386 151.413 204.069 150.944C204.751 150.475 205.541 150.24 206.437 150.24C207.546 150.24 208.293 150.517 208.677 151.072C209.103 151.627 209.317 152.651 209.317 154.144C209.317 155.595 209.253 156.853 209.125 157.92C208.997 158.944 208.719 159.861 208.293 160.672C208.89 160.672 209.871 160.629 211.237 160.544C213.114 160.459 214.415 160.416 215.141 160.416C215.866 160.416 216.506 160.608 217.061 160.992C217.615 161.333 217.893 161.824 217.893 162.464C217.893 163.36 217.701 164.021 217.317 164.448C216.933 164.875 216.378 165.152 215.653 165.28C213.903 165.749 211.429 166.027 208.229 166.112C208.143 167.776 208.101 169.589 208.101 171.552C208.101 174.837 208.293 177.355 208.677 179.104C208.933 180.469 209.359 181.472 209.957 182.112C210.597 182.709 211.535 183.008 212.773 183.008C213.413 183.008 213.925 182.923 214.309 182.752C214.735 182.581 214.97 182.475 215.013 182.432C215.525 182.133 215.994 181.984 216.421 181.984C217.018 181.984 217.445 182.176 217.701 182.56C217.999 182.944 218.149 183.456 218.149 184.096C218.149 185.291 217.509 186.293 216.229 187.104C214.949 187.872 213.306 188.256 211.301 188.256C209.039 188.256 207.119 187.595 205.541 186.272C204.005 184.907 203.087 183.115 202.789 180.896C202.362 178.891 202.149 176.075 202.149 172.448C202.149 170.869 202.234 168.757 202.405 166.112L199.333 165.856Z" fill="#4DD0E1"/>
</svg>
