<svg width="116" height="120" viewBox="0 0 116 120" fill="none" xmlns="http://www.w3.org/2000/svg">
<g filter="url(#filter0_dd_104_19)">
<path d="M83.2026 75.147L75.9882 69.116L71.1794 73.136L78.3938 79.167C79.7224 80.2777 81.8763 80.2777 83.2026 79.167C84.529 78.0563 84.5312 76.2577 83.2026 75.147ZM90.0044 41.031L82.79 35L77.9812 39.02L85.1955 45.051C86.5242 46.1616 88.6781 46.1616 90.0044 45.051C91.3307 43.9403 91.333 42.1416 90.0044 41.031ZM31.3642 75.147L38.5786 69.116L43.3874 73.136L36.173 79.167C34.8444 80.2777 32.6905 80.2777 31.3642 79.167C30.0378 78.0563 30.0356 76.2577 31.3642 75.147ZM23.9956 41.031L31.21 35L36.0188 39.02L28.8044 45.051C27.4758 46.1616 25.3219 46.1616 23.9956 45.051C22.6693 43.9403 22.667 42.1416 23.9956 41.031Z" fill="#FFCC80"/>
</g>
<g filter="url(#filter1_dd_104_19)">
<path d="M89 9.5C89 5.95617 86.3737 4 81.6149 4C76.856 4 73 8.70617 73 12.25C73 14.0833 77.3954 15 79.8571 15C84.616 15 89 13.0438 89 9.5ZM25 9.5C25 5.95617 27.6263 4 32.3851 4C37.144 4 41 8.70617 41 12.25C41 14.0833 36.6046 15 34.1429 15C29.384 15 25 13.0438 25 9.5Z" fill="#4DD0E1"/>
</g>
<g filter="url(#filter2_dd_104_19)">
<path d="M81.75 8C81.1533 8 80.581 8.15804 80.159 8.43934C79.7371 8.72064 79.5 9.10218 79.5 9.5C79.5 9.89782 79.7371 10.2794 80.159 10.5607C80.581 10.842 81.1533 11 81.75 11C82.3467 11 82.919 10.842 83.341 10.5607C83.7629 10.2794 84 9.89782 84 9.5C84 9.10218 83.7629 8.72064 83.341 8.43934C82.919 8.15804 82.3467 8 81.75 8ZM32.25 8C31.6533 8 31.081 8.15804 30.659 8.43934C30.2371 8.72064 30 9.10218 30 9.5C30 9.89782 30.2371 10.2794 30.659 10.5607C31.081 10.842 31.6533 11 32.25 11C32.8467 11 33.419 10.842 33.841 10.5607C34.2629 10.2794 34.5 9.89782 34.5 9.5C34.5 9.10218 34.2629 8.72064 33.841 8.43934C33.419 8.15804 32.8467 8 32.25 8Z" fill="#424242"/>
</g>
<g filter="url(#filter3_dd_104_19)">
<path d="M86 58.9756C86 68.0579 78.8192 78 56.3085 78C38.1902 78 28 68.0579 28 58.9756C28 49.4634 30.2308 47.93 30.2308 39.9512C30.2308 31.0326 30.2308 26.6341 30.2308 20.9268C30.2308 11.8446 37.0926 0 56.3085 0C75.5243 0 83.7692 7.59263 83.7692 19.0244C83.7692 24.7317 83.2405 29.3984 83.7692 38.0488C84.1842 44.8253 86 53.2683 86 58.9756Z" fill="#4DD0E1"/>
</g>
<g filter="url(#filter4_dd_104_19)">
<path d="M68.3589 5.71545C65.9537 5.71545 63.6469 6.51834 61.9462 7.94747C60.2454 9.37661 59.2899 11.3149 59.2899 13.336C59.2899 15.3571 60.2454 17.2955 61.9462 18.7246C63.6469 20.1538 65.9537 20.9566 68.3589 20.9566C70.7642 20.9566 73.0709 20.1538 74.7717 18.7246C76.4725 17.2955 77.4279 15.3571 77.4279 13.336C77.4279 11.3149 76.4725 9.37661 74.7717 7.94747C73.0709 6.51834 70.7642 5.71545 68.3589 5.71545ZM45.6864 5.71545C43.2812 5.71545 40.9744 6.51834 39.2737 7.94747C37.5729 9.37661 36.6174 11.3149 36.6174 13.336C36.6174 15.3571 37.5729 17.2955 39.2737 18.7246C40.9744 20.1538 43.2812 20.9566 45.6864 20.9566C48.0917 20.9566 50.3984 20.1538 52.0992 18.7246C53.7999 17.2955 54.7554 15.3571 54.7554 13.336C54.7554 11.3149 53.7999 9.37661 52.0992 7.94747C50.3984 6.51834 48.0917 5.71545 45.6864 5.71545Z" fill="#F5F5F5"/>
</g>
<g filter="url(#filter5_dd_104_19)">
<path d="M57.0227 32.3875C57.0227 33.4391 58.0384 34.2926 59.2899 34.2926C60.5414 34.2926 61.5572 33.4391 61.5572 32.3875V26.6721H57.0227V32.3875ZM52.4882 32.3875C52.4882 33.4391 53.5039 34.2926 54.7554 34.2926C56.0069 34.2926 57.0227 33.4391 57.0227 32.3875V26.6721H52.4882V32.3875Z" fill="#EEEEEE"/>
</g>
<g filter="url(#filter6_dd_104_19)">
<path d="M62.625 29C61.698 29 61.1558 28.83 60.3503 28.59C58.1565 27.934 55.803 27.938 53.6093 28.594C52.8105 28.832 52.2975 29 51.375 29C48.3735 29 48 27 48 26C48 23 51.375 21 54.75 21C56.6287 21 57.3713 21 59.25 21C62.625 21 66 23 66 26C66 27 65.6265 29 62.625 29Z" fill="#FFCC80"/>
</g>
<g filter="url(#filter7_dd_104_19)">
<path d="M63.8244 11.4309C63.2231 11.4309 62.6464 11.6316 62.2212 11.9889C61.796 12.3462 61.5572 12.8307 61.5572 13.336C61.5572 13.8413 61.796 14.3259 62.2212 14.6832C62.6464 15.0405 63.2231 15.2412 63.8244 15.2412C64.4257 15.2412 65.0024 15.0405 65.4276 14.6832C65.8528 14.3259 66.0917 13.8413 66.0917 13.336C66.0917 12.8307 65.8528 12.3462 65.4276 11.9889C65.0024 11.6316 64.4257 11.4309 63.8244 11.4309ZM41.1519 11.4309C40.5506 11.4309 39.9739 11.6316 39.5487 11.9889C39.1235 12.3462 38.8846 12.8307 38.8846 13.336C38.8846 13.8413 39.1235 14.3259 39.5487 14.6832C39.9739 15.0405 40.5506 15.2412 41.1519 15.2412C41.7532 15.2412 42.3299 15.0405 42.7551 14.6832C43.1803 14.3259 43.4191 13.8413 43.4191 13.336C43.4191 12.8307 43.1803 12.3462 42.7551 11.9889C42.3299 11.6316 41.7532 11.4309 41.1519 11.4309ZM57.0227 19.0515C55.82 19.0515 54.6667 19.2522 53.8163 19.6095C52.9659 19.9668 52.4882 20.4513 52.4882 20.9566C52.4882 21.4619 52.9659 21.9465 53.8163 22.3038C54.6667 22.661 55.82 22.8618 57.0227 22.8618C58.2253 22.8618 59.3787 22.661 60.229 22.3038C61.0794 21.9465 61.5572 21.4619 61.5572 20.9566C61.5572 20.4513 61.0794 19.9668 60.229 19.6095C59.3787 19.2522 58.2253 19.0515 57.0227 19.0515Z" fill="#424242"/>
</g>
<g filter="url(#filter8_dd_104_19)">
<mask id="path-9-outside-1_104_19" maskUnits="userSpaceOnUse" x="3" y="82" width="110" height="31" fill="black">
<rect fill="white" x="3" y="82" width="110" height="31"/>
<path d="M14.672 95.52C15.4187 96.7787 16.1653 97.8987 16.912 98.88C17.68 99.84 18.6827 101.024 19.92 102.432C20.0693 102.581 20.144 102.752 20.144 102.944C20.144 103.243 19.9733 103.499 19.632 103.712C19.312 103.925 18.9173 104.032 18.448 104.032C17.7867 104.032 17.072 103.755 16.304 103.2C15.6213 102.709 15.0133 102.059 14.48 101.248C13.9467 100.437 13.328 99.3813 12.624 98.08C12.0693 97.0773 11.7387 96.4907 11.632 96.32C10.8 96.6613 9.49867 96.8747 7.728 96.96C7.728 97.6853 7.792 98.6667 7.92 99.904C8.048 101.184 8.112 102.112 8.112 102.688C8.112 103.072 7.92 103.392 7.536 103.648C7.17333 103.904 6.75733 104.032 6.288 104.032C5.73333 104.032 5.30667 103.808 5.008 103.36C4.70933 102.763 4.51733 102.048 4.432 101.216C4.34667 100.384 4.304 99.392 4.304 98.24C4.304 97.024 4.37867 95.648 4.528 94.112C4.656 92.4053 4.72 91.1467 4.72 90.336C4.72 89.6747 4.656 88.7893 4.528 87.68C4.50667 87.488 4.47467 87.1573 4.432 86.688C4.38933 86.2187 4.368 85.792 4.368 85.408C4.368 85.1093 4.47467 84.8533 4.688 84.64C4.92267 84.4053 5.168 84.2453 5.424 84.16C7.152 83.8827 8.83733 83.744 10.48 83.744C13.2747 83.744 15.5893 84.2667 17.424 85.312C19.2587 86.3573 20.176 87.9467 20.176 90.08C20.176 90.7413 20.0267 91.3813 19.728 92C19.4507 92.5973 19.0667 93.0987 18.576 93.504C17.2747 94.5067 15.9733 95.1787 14.672 95.52ZM16.816 89.984C16.816 88.96 16.272 88.128 15.184 87.488C14.096 86.8267 12.5493 86.496 10.544 86.496C9.648 86.496 8.76267 86.6027 7.888 86.816L7.92 88.448C7.92 89.3867 7.888 90.304 7.824 91.2C7.76 92.096 7.728 93.056 7.728 94.08C8.09067 93.9947 8.47467 93.9413 8.88 93.92C9.28533 93.8773 9.552 93.8453 9.68 93.824C10.6187 93.7387 11.344 93.632 11.856 93.504C12.816 93.2053 13.6053 92.9387 14.224 92.704C14.864 92.448 15.4507 92.096 15.984 91.648C16.5387 91.1787 16.816 90.624 16.816 89.984ZM22.565 97.216C22.565 96.4053 22.7143 95.5947 23.013 94.784C23.3117 93.952 23.7063 93.1947 24.197 92.512C24.6877 91.8293 25.4663 91.2747 26.533 90.848C27.5997 90.4 28.549 90.176 29.381 90.176C30.2343 90.176 31.0983 90.2933 31.973 90.528C32.869 90.7627 33.4877 91.1253 33.829 91.616C34.6183 92.7253 35.013 93.8133 35.013 94.88C35.013 95.456 34.885 95.9467 34.629 96.352C34.3943 96.7573 34.053 97.1947 33.605 97.664C33.2423 98.048 32.6663 98.304 31.877 98.432C31.109 98.56 30.341 98.624 29.573 98.624C29.0823 98.624 28.485 98.5813 27.781 98.496C27.077 98.3893 26.3943 98.2613 25.733 98.112C25.7757 98.5387 25.8823 98.9547 26.053 99.36C26.2237 99.7653 26.4263 100.075 26.661 100.288C27.0877 100.693 27.525 100.949 27.973 101.056C28.4423 101.163 29.0397 101.216 29.765 101.216C30.533 101.216 31.2477 101.088 31.909 100.832C32.4423 100.64 32.8797 100.544 33.221 100.544C33.6263 100.544 33.9357 100.672 34.149 100.928C34.3623 101.163 34.469 101.472 34.469 101.856C34.469 102.389 34.1597 102.827 33.541 103.168C32.9223 103.509 32.2077 103.765 31.397 103.936C30.6077 104.085 29.9677 104.16 29.477 104.16C28.4743 104.16 27.5037 103.979 26.565 103.616C25.6263 103.253 24.8477 102.741 24.229 102.08C23.717 101.483 23.3117 100.768 23.013 99.936C22.7143 99.0827 22.565 98.176 22.565 97.216ZM29.541 92.896C29.0717 92.896 28.6023 92.992 28.133 93.184C27.6637 93.3547 27.2797 93.6 26.981 93.92C26.597 94.3253 26.3303 94.656 26.181 94.912C26.053 95.1467 25.9677 95.4773 25.925 95.904C26.4583 96.0747 27.5677 96.16 29.253 96.16C30.1703 96.16 30.8743 96.0213 31.365 95.744C31.877 95.4667 32.133 95.104 32.133 94.656C32.133 94.208 31.8557 93.8027 31.301 93.44C30.7463 93.0773 30.1597 92.896 29.541 92.896ZM49.751 90.08C50.071 90.08 50.3803 90.176 50.679 90.368C50.999 90.5387 51.159 90.8267 51.159 91.232C51.159 91.5093 51.031 92.1387 50.775 93.12C50.583 93.888 50.4763 94.368 50.455 94.56C50.199 96.5227 50.071 99.3067 50.071 102.912C50.071 104 50.103 104.896 50.167 105.6C50.231 106.325 50.3163 107.2 50.423 108.224C50.5083 108.949 50.551 109.376 50.551 109.504C50.551 109.952 50.4017 110.336 50.103 110.656C49.8043 110.997 49.463 111.168 49.079 111.168C48.567 111.168 48.1937 111.061 47.959 110.848C47.7457 110.635 47.5963 110.325 47.511 109.92C47.4043 109.173 47.2977 108.235 47.191 107.104C47.1057 105.995 47.063 105.013 47.063 104.16C47.063 103.669 47.0737 103.2 47.095 102.752C47.1163 102.304 47.127 102.005 47.127 101.856C46.7217 102.347 46.135 102.731 45.367 103.008C44.6203 103.264 43.9163 103.392 43.255 103.392C42.423 103.392 41.719 103.285 41.143 103.072C40.5883 102.837 40.0017 102.411 39.383 101.792C38.8497 101.259 38.4123 100.651 38.071 99.968C37.751 99.2853 37.591 98.5707 37.591 97.824C37.591 96.8213 37.6977 95.8507 37.911 94.912C38.1243 93.9733 38.4657 93.184 38.935 92.544C39.6177 91.7547 40.4497 91.168 41.431 90.784C42.4123 90.3787 43.415 90.176 44.439 90.176C44.9937 90.176 45.5803 90.304 46.199 90.56C46.8177 90.816 47.3723 91.1467 47.863 91.552C48.055 91.0613 48.3217 90.6987 48.663 90.464C49.0043 90.208 49.367 90.08 49.751 90.08ZM43.735 100.8C44.3537 100.8 44.9723 100.597 45.591 100.192C46.231 99.7867 46.647 99.264 46.839 98.624C46.9883 97.664 47.0843 96.2347 47.127 94.336C46.7857 93.888 46.359 93.5573 45.847 93.344C45.335 93.1093 44.887 92.992 44.503 92.992C44.0123 92.992 43.479 93.088 42.903 93.28C42.3483 93.472 41.9323 93.7493 41.655 94.112C41.0577 95.0293 40.759 96.128 40.759 97.408C40.759 97.9627 40.8123 98.432 40.919 98.816C41.0257 99.2 41.239 99.52 41.559 99.776C41.9643 100.096 42.327 100.352 42.647 100.544C42.9883 100.715 43.351 100.8 43.735 100.8ZM55.822 90.112C57.23 90.112 57.934 91.04 57.934 92.896C57.934 93.1307 57.9127 93.6533 57.87 94.464C57.8273 95.4027 57.806 96.1387 57.806 96.672C57.806 98.1653 58.0087 99.3707 58.414 100.288C58.5633 100.587 58.83 100.821 59.214 100.992C59.6193 101.163 59.9607 101.248 60.238 101.248C60.6647 101.248 61.0167 101.195 61.294 101.088C61.5713 100.981 61.8273 100.821 62.062 100.608C62.318 100.395 62.5633 100.16 62.798 99.904C63.2033 99.456 63.4593 98.944 63.566 98.368C63.694 97.7707 63.7687 96.9813 63.79 96C63.79 95.3813 63.822 94.784 63.886 94.208C64.014 93.2693 64.078 92.3947 64.078 91.584C64.078 91.136 64.1953 90.7627 64.43 90.464C64.686 90.144 65.0487 89.984 65.518 89.984C65.7527 89.984 66.03 90.0693 66.35 90.24C66.6913 90.3893 66.9153 90.56 67.022 90.752C67.1713 91.008 67.246 91.36 67.246 91.808C67.246 92.0853 67.214 92.3413 67.15 92.576C67.0433 92.896 66.99 93.3013 66.99 93.792C66.99 94.048 67.0113 94.4747 67.054 95.072C67.118 95.52 67.15 95.9787 67.15 96.448C67.15 97.8773 67.2567 98.9333 67.47 99.616C67.7047 100.341 68.0247 100.981 68.43 101.536C68.8567 101.984 69.1447 102.315 69.294 102.528C69.4433 102.72 69.518 102.891 69.518 103.04C69.518 103.296 69.39 103.541 69.134 103.776C68.878 104.011 68.6113 104.128 68.334 104.128C67.5447 104.128 66.8513 103.861 66.254 103.328C65.678 102.773 65.2513 102.069 64.974 101.216C64.7393 101.493 64.43 101.835 64.046 102.24C63.662 102.645 63.2993 102.976 62.958 103.232C62.126 103.829 61.0593 104.128 59.758 104.128C59.2247 104.128 58.638 103.968 57.998 103.648C57.3793 103.328 56.814 102.912 56.302 102.4C55.79 101.867 55.438 101.301 55.246 100.704C55.2247 100.661 55.1607 100.491 55.054 100.192C54.9687 99.8933 54.926 99.4453 54.926 98.848L54.894 93.728C54.894 93.4293 54.8193 92.96 54.67 92.32C54.542 91.8933 54.478 91.5733 54.478 91.36C54.478 90.9973 54.5953 90.6987 54.83 90.464C55.086 90.2293 55.4167 90.112 55.822 90.112ZM71.6588 96.768C71.6588 96 71.7974 95.2853 72.0748 94.624C72.3521 93.9413 72.7574 93.2373 73.2908 92.512C73.8241 91.7867 74.5601 91.2213 75.4988 90.816C76.4374 90.3893 77.4614 90.176 78.5708 90.176C79.4241 90.176 80.2454 90.3573 81.0348 90.72C81.8454 91.0613 82.5708 91.488 83.2108 92C83.2961 92.1493 83.4454 92.4267 83.6588 92.832C83.8721 93.216 84.0214 93.568 84.1068 93.888C84.2134 94.208 84.2668 94.5387 84.2668 94.88C84.2668 96.3093 83.7441 97.2693 82.6988 97.76C81.6534 98.2293 80.3308 98.464 78.7308 98.464C77.1308 98.464 75.8294 98.3573 74.8268 98.144C74.8694 98.5493 74.9761 98.9547 75.1468 99.36C75.3174 99.7653 75.5201 100.075 75.7548 100.288C76.1814 100.693 76.5974 100.96 77.0028 101.088C77.4294 101.195 77.9948 101.248 78.6988 101.248C79.7654 101.248 80.5974 101.045 81.1948 100.64C81.7494 100.277 82.1761 100.096 82.4748 100.096C82.8801 100.096 83.1894 100.224 83.4028 100.48C83.6161 100.715 83.7228 101.024 83.7228 101.408C83.7228 102.219 83.2001 102.88 82.1548 103.392C81.1308 103.904 79.9681 104.16 78.6667 104.16C77.6428 104.16 76.6294 103.979 75.6268 103.616C74.6241 103.253 73.8241 102.741 73.2268 102.08C72.8214 101.397 72.4588 100.565 72.1388 99.584C71.8188 98.6027 71.6588 97.664 71.6588 96.768ZM78.6988 92.8C78.2294 92.8 77.7388 92.8853 77.2268 93.056C76.7361 93.2053 76.3521 93.44 76.0748 93.76C75.7334 94.1227 75.4774 94.4533 75.3068 94.752C75.1574 95.0507 75.0614 95.424 75.0188 95.872C75.2534 95.872 75.4774 95.8827 75.6908 95.904C75.9041 95.9253 76.1068 95.9467 76.2988 95.968C77.2374 96.0533 77.9414 96.096 78.4108 96.096C79.3494 96.096 80.0641 95.9573 80.5548 95.68C81.0668 95.4027 81.3228 95.0293 81.3228 94.56C81.3228 94.112 81.0348 93.7067 80.4588 93.344C79.9041 92.9813 79.3174 92.8 78.6988 92.8ZM96.3123 97.088C96.4829 97.1947 96.8136 97.3973 97.3043 97.696C97.8163 97.9733 98.1576 98.304 98.3283 98.688C98.4989 99.072 98.5843 99.6053 98.5843 100.288C98.5843 101.056 98.3603 101.739 97.9123 102.336C97.4643 102.912 96.8883 103.36 96.1843 103.68C95.6936 103.893 95.1603 104.021 94.5843 104.064C94.0296 104.107 93.3576 104.128 92.5683 104.128C92.1416 104.128 91.5869 104.064 90.9043 103.936C90.2429 103.808 89.7843 103.691 89.5283 103.584C88.8456 103.2 88.2696 102.752 87.8003 102.24C87.3309 101.728 87.0963 101.205 87.0963 100.672C87.0963 100.245 87.2349 99.904 87.5123 99.648C87.7896 99.392 88.1523 99.264 88.6003 99.264C88.8349 99.264 89.0589 99.328 89.2723 99.456C89.5069 99.5627 89.6669 99.6907 89.7523 99.84C89.9869 100.395 90.3816 100.811 90.9363 101.088C91.4909 101.365 92.0563 101.504 92.6323 101.504C94.6589 101.504 95.6723 101.141 95.6723 100.416C95.6723 100.224 95.6189 100.075 95.5123 99.968C95.4269 99.84 95.2989 99.712 95.1283 99.584C94.8509 99.392 94.4563 99.1893 93.9443 98.976C93.4536 98.7627 93.0163 98.6027 92.6323 98.496C91.7576 98.304 90.9043 98.016 90.0723 97.632C89.3043 97.248 88.6749 96.7467 88.1843 96.128C87.6936 95.488 87.4483 94.7093 87.4483 93.792C87.4483 93.2373 87.6509 92.6933 88.0563 92.16C88.4829 91.6053 88.9736 91.1893 89.5283 90.912C89.9123 90.7627 90.5416 90.6027 91.4163 90.432C92.2909 90.2613 92.8883 90.176 93.2083 90.176C93.6989 90.176 94.2323 90.2293 94.8083 90.336C95.3843 90.4213 95.8216 90.5707 96.1203 90.784C96.6963 91.1253 97.1656 91.488 97.5283 91.872C97.8909 92.2347 98.0723 92.6507 98.0723 93.12C98.0723 93.3547 98.0189 93.6107 97.9123 93.888C97.8056 94.144 97.6776 94.304 97.5283 94.368C97.2083 94.5173 96.8349 94.592 96.4083 94.592C96.2163 94.592 96.0563 94.5387 95.9283 94.432C95.8216 94.3253 95.6723 94.1547 95.4803 93.92C95.2456 93.5573 95.0216 93.344 94.8083 93.28C94.5523 93.216 94.1789 93.1413 93.6883 93.056C93.1976 92.9493 92.8669 92.896 92.6963 92.896C92.1629 92.896 91.6509 93.0027 91.1603 93.216C90.6909 93.4293 90.4563 93.7173 90.4563 94.08C90.4563 94.5067 90.8083 94.8693 91.5123 95.168C91.9603 95.3813 92.4509 95.5627 92.9843 95.712C93.5389 95.8613 93.8803 95.9573 94.0083 96C94.3069 96.064 94.6909 96.2133 95.1603 96.448C95.6509 96.6827 96.0349 96.896 96.3123 97.088ZM101.666 92.928C101.368 92.8853 101.122 92.7573 100.93 92.544C100.76 92.3307 100.674 92.0747 100.674 91.776C100.674 91.6267 100.706 91.4667 100.77 91.296C100.856 91.1253 100.973 90.976 101.122 90.848C101.4 90.6133 101.773 90.3893 102.242 90.176C102.733 89.984 103.085 89.7493 103.298 89.472C103.512 89.1947 103.618 88.672 103.618 87.904C103.618 87.584 103.597 87.3067 103.554 87.072C103.533 86.8373 103.522 86.656 103.522 86.528C103.522 86.0587 103.693 85.7067 104.034 85.472C104.376 85.2373 104.77 85.12 105.218 85.12C105.773 85.12 106.146 85.2587 106.338 85.536C106.552 85.8133 106.658 86.3253 106.658 87.072C106.658 87.7973 106.626 88.4267 106.562 88.96C106.498 89.472 106.36 89.9307 106.146 90.336C106.445 90.336 106.936 90.3147 107.618 90.272C108.557 90.2293 109.208 90.208 109.57 90.208C109.933 90.208 110.253 90.304 110.53 90.496C110.808 90.6667 110.946 90.912 110.946 91.232C110.946 91.68 110.85 92.0107 110.658 92.224C110.466 92.4373 110.189 92.576 109.826 92.64C108.952 92.8747 107.714 93.0133 106.114 93.056C106.072 93.888 106.05 94.7947 106.05 95.776C106.05 97.4187 106.146 98.6773 106.338 99.552C106.466 100.235 106.68 100.736 106.978 101.056C107.298 101.355 107.768 101.504 108.386 101.504C108.706 101.504 108.962 101.461 109.154 101.376C109.368 101.291 109.485 101.237 109.506 101.216C109.762 101.067 109.997 100.992 110.21 100.992C110.509 100.992 110.722 101.088 110.85 101.28C111 101.472 111.074 101.728 111.074 102.048C111.074 102.645 110.754 103.147 110.114 103.552C109.474 103.936 108.653 104.128 107.65 104.128C106.52 104.128 105.56 103.797 104.77 103.136C104.002 102.453 103.544 101.557 103.394 100.448C103.181 99.4453 103.074 98.0373 103.074 96.224C103.074 95.4347 103.117 94.3787 103.202 93.056L101.666 92.928Z"/>
</mask>
<path d="M14.672 95.52C15.4187 96.7787 16.1653 97.8987 16.912 98.88C17.68 99.84 18.6827 101.024 19.92 102.432C20.0693 102.581 20.144 102.752 20.144 102.944C20.144 103.243 19.9733 103.499 19.632 103.712C19.312 103.925 18.9173 104.032 18.448 104.032C17.7867 104.032 17.072 103.755 16.304 103.2C15.6213 102.709 15.0133 102.059 14.48 101.248C13.9467 100.437 13.328 99.3813 12.624 98.08C12.0693 97.0773 11.7387 96.4907 11.632 96.32C10.8 96.6613 9.49867 96.8747 7.728 96.96C7.728 97.6853 7.792 98.6667 7.92 99.904C8.048 101.184 8.112 102.112 8.112 102.688C8.112 103.072 7.92 103.392 7.536 103.648C7.17333 103.904 6.75733 104.032 6.288 104.032C5.73333 104.032 5.30667 103.808 5.008 103.36C4.70933 102.763 4.51733 102.048 4.432 101.216C4.34667 100.384 4.304 99.392 4.304 98.24C4.304 97.024 4.37867 95.648 4.528 94.112C4.656 92.4053 4.72 91.1467 4.72 90.336C4.72 89.6747 4.656 88.7893 4.528 87.68C4.50667 87.488 4.47467 87.1573 4.432 86.688C4.38933 86.2187 4.368 85.792 4.368 85.408C4.368 85.1093 4.47467 84.8533 4.688 84.64C4.92267 84.4053 5.168 84.2453 5.424 84.16C7.152 83.8827 8.83733 83.744 10.48 83.744C13.2747 83.744 15.5893 84.2667 17.424 85.312C19.2587 86.3573 20.176 87.9467 20.176 90.08C20.176 90.7413 20.0267 91.3813 19.728 92C19.4507 92.5973 19.0667 93.0987 18.576 93.504C17.2747 94.5067 15.9733 95.1787 14.672 95.52ZM16.816 89.984C16.816 88.96 16.272 88.128 15.184 87.488C14.096 86.8267 12.5493 86.496 10.544 86.496C9.648 86.496 8.76267 86.6027 7.888 86.816L7.92 88.448C7.92 89.3867 7.888 90.304 7.824 91.2C7.76 92.096 7.728 93.056 7.728 94.08C8.09067 93.9947 8.47467 93.9413 8.88 93.92C9.28533 93.8773 9.552 93.8453 9.68 93.824C10.6187 93.7387 11.344 93.632 11.856 93.504C12.816 93.2053 13.6053 92.9387 14.224 92.704C14.864 92.448 15.4507 92.096 15.984 91.648C16.5387 91.1787 16.816 90.624 16.816 89.984ZM22.565 97.216C22.565 96.4053 22.7143 95.5947 23.013 94.784C23.3117 93.952 23.7063 93.1947 24.197 92.512C24.6877 91.8293 25.4663 91.2747 26.533 90.848C27.5997 90.4 28.549 90.176 29.381 90.176C30.2343 90.176 31.0983 90.2933 31.973 90.528C32.869 90.7627 33.4877 91.1253 33.829 91.616C34.6183 92.7253 35.013 93.8133 35.013 94.88C35.013 95.456 34.885 95.9467 34.629 96.352C34.3943 96.7573 34.053 97.1947 33.605 97.664C33.2423 98.048 32.6663 98.304 31.877 98.432C31.109 98.56 30.341 98.624 29.573 98.624C29.0823 98.624 28.485 98.5813 27.781 98.496C27.077 98.3893 26.3943 98.2613 25.733 98.112C25.7757 98.5387 25.8823 98.9547 26.053 99.36C26.2237 99.7653 26.4263 100.075 26.661 100.288C27.0877 100.693 27.525 100.949 27.973 101.056C28.4423 101.163 29.0397 101.216 29.765 101.216C30.533 101.216 31.2477 101.088 31.909 100.832C32.4423 100.64 32.8797 100.544 33.221 100.544C33.6263 100.544 33.9357 100.672 34.149 100.928C34.3623 101.163 34.469 101.472 34.469 101.856C34.469 102.389 34.1597 102.827 33.541 103.168C32.9223 103.509 32.2077 103.765 31.397 103.936C30.6077 104.085 29.9677 104.16 29.477 104.16C28.4743 104.16 27.5037 103.979 26.565 103.616C25.6263 103.253 24.8477 102.741 24.229 102.08C23.717 101.483 23.3117 100.768 23.013 99.936C22.7143 99.0827 22.565 98.176 22.565 97.216ZM29.541 92.896C29.0717 92.896 28.6023 92.992 28.133 93.184C27.6637 93.3547 27.2797 93.6 26.981 93.92C26.597 94.3253 26.3303 94.656 26.181 94.912C26.053 95.1467 25.9677 95.4773 25.925 95.904C26.4583 96.0747 27.5677 96.16 29.253 96.16C30.1703 96.16 30.8743 96.0213 31.365 95.744C31.877 95.4667 32.133 95.104 32.133 94.656C32.133 94.208 31.8557 93.8027 31.301 93.44C30.7463 93.0773 30.1597 92.896 29.541 92.896ZM49.751 90.08C50.071 90.08 50.3803 90.176 50.679 90.368C50.999 90.5387 51.159 90.8267 51.159 91.232C51.159 91.5093 51.031 92.1387 50.775 93.12C50.583 93.888 50.4763 94.368 50.455 94.56C50.199 96.5227 50.071 99.3067 50.071 102.912C50.071 104 50.103 104.896 50.167 105.6C50.231 106.325 50.3163 107.2 50.423 108.224C50.5083 108.949 50.551 109.376 50.551 109.504C50.551 109.952 50.4017 110.336 50.103 110.656C49.8043 110.997 49.463 111.168 49.079 111.168C48.567 111.168 48.1937 111.061 47.959 110.848C47.7457 110.635 47.5963 110.325 47.511 109.92C47.4043 109.173 47.2977 108.235 47.191 107.104C47.1057 105.995 47.063 105.013 47.063 104.16C47.063 103.669 47.0737 103.2 47.095 102.752C47.1163 102.304 47.127 102.005 47.127 101.856C46.7217 102.347 46.135 102.731 45.367 103.008C44.6203 103.264 43.9163 103.392 43.255 103.392C42.423 103.392 41.719 103.285 41.143 103.072C40.5883 102.837 40.0017 102.411 39.383 101.792C38.8497 101.259 38.4123 100.651 38.071 99.968C37.751 99.2853 37.591 98.5707 37.591 97.824C37.591 96.8213 37.6977 95.8507 37.911 94.912C38.1243 93.9733 38.4657 93.184 38.935 92.544C39.6177 91.7547 40.4497 91.168 41.431 90.784C42.4123 90.3787 43.415 90.176 44.439 90.176C44.9937 90.176 45.5803 90.304 46.199 90.56C46.8177 90.816 47.3723 91.1467 47.863 91.552C48.055 91.0613 48.3217 90.6987 48.663 90.464C49.0043 90.208 49.367 90.08 49.751 90.08ZM43.735 100.8C44.3537 100.8 44.9723 100.597 45.591 100.192C46.231 99.7867 46.647 99.264 46.839 98.624C46.9883 97.664 47.0843 96.2347 47.127 94.336C46.7857 93.888 46.359 93.5573 45.847 93.344C45.335 93.1093 44.887 92.992 44.503 92.992C44.0123 92.992 43.479 93.088 42.903 93.28C42.3483 93.472 41.9323 93.7493 41.655 94.112C41.0577 95.0293 40.759 96.128 40.759 97.408C40.759 97.9627 40.8123 98.432 40.919 98.816C41.0257 99.2 41.239 99.52 41.559 99.776C41.9643 100.096 42.327 100.352 42.647 100.544C42.9883 100.715 43.351 100.8 43.735 100.8ZM55.822 90.112C57.23 90.112 57.934 91.04 57.934 92.896C57.934 93.1307 57.9127 93.6533 57.87 94.464C57.8273 95.4027 57.806 96.1387 57.806 96.672C57.806 98.1653 58.0087 99.3707 58.414 100.288C58.5633 100.587 58.83 100.821 59.214 100.992C59.6193 101.163 59.9607 101.248 60.238 101.248C60.6647 101.248 61.0167 101.195 61.294 101.088C61.5713 100.981 61.8273 100.821 62.062 100.608C62.318 100.395 62.5633 100.16 62.798 99.904C63.2033 99.456 63.4593 98.944 63.566 98.368C63.694 97.7707 63.7687 96.9813 63.79 96C63.79 95.3813 63.822 94.784 63.886 94.208C64.014 93.2693 64.078 92.3947 64.078 91.584C64.078 91.136 64.1953 90.7627 64.43 90.464C64.686 90.144 65.0487 89.984 65.518 89.984C65.7527 89.984 66.03 90.0693 66.35 90.24C66.6913 90.3893 66.9153 90.56 67.022 90.752C67.1713 91.008 67.246 91.36 67.246 91.808C67.246 92.0853 67.214 92.3413 67.15 92.576C67.0433 92.896 66.99 93.3013 66.99 93.792C66.99 94.048 67.0113 94.4747 67.054 95.072C67.118 95.52 67.15 95.9787 67.15 96.448C67.15 97.8773 67.2567 98.9333 67.47 99.616C67.7047 100.341 68.0247 100.981 68.43 101.536C68.8567 101.984 69.1447 102.315 69.294 102.528C69.4433 102.72 69.518 102.891 69.518 103.04C69.518 103.296 69.39 103.541 69.134 103.776C68.878 104.011 68.6113 104.128 68.334 104.128C67.5447 104.128 66.8513 103.861 66.254 103.328C65.678 102.773 65.2513 102.069 64.974 101.216C64.7393 101.493 64.43 101.835 64.046 102.24C63.662 102.645 63.2993 102.976 62.958 103.232C62.126 103.829 61.0593 104.128 59.758 104.128C59.2247 104.128 58.638 103.968 57.998 103.648C57.3793 103.328 56.814 102.912 56.302 102.4C55.79 101.867 55.438 101.301 55.246 100.704C55.2247 100.661 55.1607 100.491 55.054 100.192C54.9687 99.8933 54.926 99.4453 54.926 98.848L54.894 93.728C54.894 93.4293 54.8193 92.96 54.67 92.32C54.542 91.8933 54.478 91.5733 54.478 91.36C54.478 90.9973 54.5953 90.6987 54.83 90.464C55.086 90.2293 55.4167 90.112 55.822 90.112ZM71.6588 96.768C71.6588 96 71.7974 95.2853 72.0748 94.624C72.3521 93.9413 72.7574 93.2373 73.2908 92.512C73.8241 91.7867 74.5601 91.2213 75.4988 90.816C76.4374 90.3893 77.4614 90.176 78.5708 90.176C79.4241 90.176 80.2454 90.3573 81.0348 90.72C81.8454 91.0613 82.5708 91.488 83.2108 92C83.2961 92.1493 83.4454 92.4267 83.6588 92.832C83.8721 93.216 84.0214 93.568 84.1068 93.888C84.2134 94.208 84.2668 94.5387 84.2668 94.88C84.2668 96.3093 83.7441 97.2693 82.6988 97.76C81.6534 98.2293 80.3308 98.464 78.7308 98.464C77.1308 98.464 75.8294 98.3573 74.8268 98.144C74.8694 98.5493 74.9761 98.9547 75.1468 99.36C75.3174 99.7653 75.5201 100.075 75.7548 100.288C76.1814 100.693 76.5974 100.96 77.0028 101.088C77.4294 101.195 77.9948 101.248 78.6988 101.248C79.7654 101.248 80.5974 101.045 81.1948 100.64C81.7494 100.277 82.1761 100.096 82.4748 100.096C82.8801 100.096 83.1894 100.224 83.4028 100.48C83.6161 100.715 83.7228 101.024 83.7228 101.408C83.7228 102.219 83.2001 102.88 82.1548 103.392C81.1308 103.904 79.9681 104.16 78.6667 104.16C77.6428 104.16 76.6294 103.979 75.6268 103.616C74.6241 103.253 73.8241 102.741 73.2268 102.08C72.8214 101.397 72.4588 100.565 72.1388 99.584C71.8188 98.6027 71.6588 97.664 71.6588 96.768ZM78.6988 92.8C78.2294 92.8 77.7388 92.8853 77.2268 93.056C76.7361 93.2053 76.3521 93.44 76.0748 93.76C75.7334 94.1227 75.4774 94.4533 75.3068 94.752C75.1574 95.0507 75.0614 95.424 75.0188 95.872C75.2534 95.872 75.4774 95.8827 75.6908 95.904C75.9041 95.9253 76.1068 95.9467 76.2988 95.968C77.2374 96.0533 77.9414 96.096 78.4108 96.096C79.3494 96.096 80.0641 95.9573 80.5548 95.68C81.0668 95.4027 81.3228 95.0293 81.3228 94.56C81.3228 94.112 81.0348 93.7067 80.4588 93.344C79.9041 92.9813 79.3174 92.8 78.6988 92.8ZM96.3123 97.088C96.4829 97.1947 96.8136 97.3973 97.3043 97.696C97.8163 97.9733 98.1576 98.304 98.3283 98.688C98.4989 99.072 98.5843 99.6053 98.5843 100.288C98.5843 101.056 98.3603 101.739 97.9123 102.336C97.4643 102.912 96.8883 103.36 96.1843 103.68C95.6936 103.893 95.1603 104.021 94.5843 104.064C94.0296 104.107 93.3576 104.128 92.5683 104.128C92.1416 104.128 91.5869 104.064 90.9043 103.936C90.2429 103.808 89.7843 103.691 89.5283 103.584C88.8456 103.2 88.2696 102.752 87.8003 102.24C87.3309 101.728 87.0963 101.205 87.0963 100.672C87.0963 100.245 87.2349 99.904 87.5123 99.648C87.7896 99.392 88.1523 99.264 88.6003 99.264C88.8349 99.264 89.0589 99.328 89.2723 99.456C89.5069 99.5627 89.6669 99.6907 89.7523 99.84C89.9869 100.395 90.3816 100.811 90.9363 101.088C91.4909 101.365 92.0563 101.504 92.6323 101.504C94.6589 101.504 95.6723 101.141 95.6723 100.416C95.6723 100.224 95.6189 100.075 95.5123 99.968C95.4269 99.84 95.2989 99.712 95.1283 99.584C94.8509 99.392 94.4563 99.1893 93.9443 98.976C93.4536 98.7627 93.0163 98.6027 92.6323 98.496C91.7576 98.304 90.9043 98.016 90.0723 97.632C89.3043 97.248 88.6749 96.7467 88.1843 96.128C87.6936 95.488 87.4483 94.7093 87.4483 93.792C87.4483 93.2373 87.6509 92.6933 88.0563 92.16C88.4829 91.6053 88.9736 91.1893 89.5283 90.912C89.9123 90.7627 90.5416 90.6027 91.4163 90.432C92.2909 90.2613 92.8883 90.176 93.2083 90.176C93.6989 90.176 94.2323 90.2293 94.8083 90.336C95.3843 90.4213 95.8216 90.5707 96.1203 90.784C96.6963 91.1253 97.1656 91.488 97.5283 91.872C97.8909 92.2347 98.0723 92.6507 98.0723 93.12C98.0723 93.3547 98.0189 93.6107 97.9123 93.888C97.8056 94.144 97.6776 94.304 97.5283 94.368C97.2083 94.5173 96.8349 94.592 96.4083 94.592C96.2163 94.592 96.0563 94.5387 95.9283 94.432C95.8216 94.3253 95.6723 94.1547 95.4803 93.92C95.2456 93.5573 95.0216 93.344 94.8083 93.28C94.5523 93.216 94.1789 93.1413 93.6883 93.056C93.1976 92.9493 92.8669 92.896 92.6963 92.896C92.1629 92.896 91.6509 93.0027 91.1603 93.216C90.6909 93.4293 90.4563 93.7173 90.4563 94.08C90.4563 94.5067 90.8083 94.8693 91.5123 95.168C91.9603 95.3813 92.4509 95.5627 92.9843 95.712C93.5389 95.8613 93.8803 95.9573 94.0083 96C94.3069 96.064 94.6909 96.2133 95.1603 96.448C95.6509 96.6827 96.0349 96.896 96.3123 97.088ZM101.666 92.928C101.368 92.8853 101.122 92.7573 100.93 92.544C100.76 92.3307 100.674 92.0747 100.674 91.776C100.674 91.6267 100.706 91.4667 100.77 91.296C100.856 91.1253 100.973 90.976 101.122 90.848C101.4 90.6133 101.773 90.3893 102.242 90.176C102.733 89.984 103.085 89.7493 103.298 89.472C103.512 89.1947 103.618 88.672 103.618 87.904C103.618 87.584 103.597 87.3067 103.554 87.072C103.533 86.8373 103.522 86.656 103.522 86.528C103.522 86.0587 103.693 85.7067 104.034 85.472C104.376 85.2373 104.77 85.12 105.218 85.12C105.773 85.12 106.146 85.2587 106.338 85.536C106.552 85.8133 106.658 86.3253 106.658 87.072C106.658 87.7973 106.626 88.4267 106.562 88.96C106.498 89.472 106.36 89.9307 106.146 90.336C106.445 90.336 106.936 90.3147 107.618 90.272C108.557 90.2293 109.208 90.208 109.57 90.208C109.933 90.208 110.253 90.304 110.53 90.496C110.808 90.6667 110.946 90.912 110.946 91.232C110.946 91.68 110.85 92.0107 110.658 92.224C110.466 92.4373 110.189 92.576 109.826 92.64C108.952 92.8747 107.714 93.0133 106.114 93.056C106.072 93.888 106.05 94.7947 106.05 95.776C106.05 97.4187 106.146 98.6773 106.338 99.552C106.466 100.235 106.68 100.736 106.978 101.056C107.298 101.355 107.768 101.504 108.386 101.504C108.706 101.504 108.962 101.461 109.154 101.376C109.368 101.291 109.485 101.237 109.506 101.216C109.762 101.067 109.997 100.992 110.21 100.992C110.509 100.992 110.722 101.088 110.85 101.28C111 101.472 111.074 101.728 111.074 102.048C111.074 102.645 110.754 103.147 110.114 103.552C109.474 103.936 108.653 104.128 107.65 104.128C106.52 104.128 105.56 103.797 104.77 103.136C104.002 102.453 103.544 101.557 103.394 100.448C103.181 99.4453 103.074 98.0373 103.074 96.224C103.074 95.4347 103.117 94.3787 103.202 93.056L101.666 92.928Z" fill="#4DD0E1"/>
<path d="M14.672 95.52L14.4183 94.5527L13.1351 94.8893L13.8119 96.0302L14.672 95.52ZM16.912 98.88L16.1162 99.4855L16.1235 99.4952L16.1311 99.5047L16.912 98.88ZM19.92 102.432L19.1688 103.092L19.1901 103.116L19.2129 103.139L19.92 102.432ZM19.632 103.712L19.102 102.864L19.0895 102.872L19.0773 102.88L19.632 103.712ZM16.304 103.2L16.8895 102.389L16.8876 102.388L16.304 103.2ZM12.624 98.08L13.5036 97.6042L13.499 97.5959L12.624 98.08ZM11.632 96.32L12.48 95.79L12.0329 95.0746L11.2524 95.3948L11.632 96.32ZM7.728 96.96L7.67986 95.9612L6.728 96.007V96.96H7.728ZM7.92 99.904L8.91504 99.8045L8.91469 99.8011L7.92 99.904ZM7.536 103.648L6.9813 102.816L6.97021 102.823L6.95932 102.831L7.536 103.648ZM5.008 103.36L4.11357 103.807L4.14142 103.863L4.17595 103.915L5.008 103.36ZM4.432 101.216L5.42678 101.114L4.432 101.216ZM4.528 94.112L5.52331 94.2088L5.52437 94.1978L5.5252 94.1868L4.528 94.112ZM4.528 87.68L3.53411 87.7904L3.53459 87.7946L4.528 87.68ZM4.432 86.688L5.42789 86.5975L5.42789 86.5975L4.432 86.688ZM4.688 84.64L5.39511 85.3471L5.39511 85.3471L4.688 84.64ZM5.424 84.16L5.26553 83.1726L5.18508 83.1855L5.10778 83.2113L5.424 84.16ZM17.424 85.312L17.9191 84.4431L17.9191 84.4431L17.424 85.312ZM19.728 92L18.8274 91.5652L18.8242 91.572L18.821 91.5789L19.728 92ZM18.576 93.504L19.1863 94.2961L19.1998 94.2858L19.2129 94.275L18.576 93.504ZM15.184 87.488L14.6646 88.3425L14.6708 88.3463L14.677 88.3499L15.184 87.488ZM7.888 86.816L7.65104 85.8445L6.87248 86.0344L6.88819 86.8356L7.888 86.816ZM7.92 88.448H8.92V88.4382L8.91981 88.4284L7.92 88.448ZM7.824 91.2L8.82146 91.2712L8.82146 91.2712L7.824 91.2ZM7.728 94.08H6.728V95.3426L7.95704 95.0534L7.728 94.08ZM8.88 93.92L8.93256 94.9186L8.95868 94.9172L8.98468 94.9145L8.88 93.92ZM9.68 93.824L9.58946 92.8281L9.55235 92.8315L9.5156 92.8376L9.68 93.824ZM11.856 93.504L12.0985 94.4741L12.126 94.4673L12.1531 94.4589L11.856 93.504ZM14.224 92.704L14.5787 93.639L14.5871 93.6358L14.5954 93.6325L14.224 92.704ZM15.984 91.648L16.6272 92.4137L16.6299 92.4114L15.984 91.648ZM13.8119 96.0302C14.5747 97.316 15.3425 98.4687 16.1162 99.4855L17.7078 98.2745C16.9882 97.3287 16.2627 96.2414 15.5321 95.0098L13.8119 96.0302ZM16.1311 99.5047C16.9123 100.481 17.926 101.678 19.1688 103.092L20.6712 101.772C19.4393 100.37 18.4477 99.1988 17.6929 98.2553L16.1311 99.5047ZM19.2129 103.139C19.2111 103.137 19.1907 103.116 19.1718 103.073C19.1522 103.028 19.144 102.982 19.144 102.944H21.144C21.144 102.459 20.9434 102.041 20.6271 101.725L19.2129 103.139ZM19.144 102.944C19.144 102.922 19.1474 102.895 19.1562 102.866C19.165 102.837 19.1762 102.817 19.184 102.805C19.1976 102.785 19.1878 102.81 19.102 102.864L20.162 104.56C20.6821 104.235 21.144 103.703 21.144 102.944H19.144ZM19.0773 102.88C18.9547 102.962 18.7638 103.032 18.448 103.032V105.032C19.0708 105.032 19.6693 104.889 20.1867 104.544L19.0773 102.88ZM18.448 103.032C18.0702 103.032 17.5581 102.872 16.8895 102.389L15.7185 104.011C16.5859 104.637 17.5032 105.032 18.448 105.032V103.032ZM16.8876 102.388C16.3183 101.979 15.7918 101.422 15.3154 100.698L13.6446 101.798C14.2349 102.695 14.9244 103.44 15.7204 104.012L16.8876 102.388ZM15.3154 100.698C14.8037 99.9206 14.2002 98.8919 13.5035 97.6042L11.7445 98.5558C12.4558 99.8708 13.0896 100.954 13.6446 101.798L15.3154 100.698ZM13.499 97.5959C12.9521 96.6072 12.6047 95.9895 12.48 95.79L10.784 96.85C10.8727 96.9919 11.1866 97.5475 11.749 98.5641L13.499 97.5959ZM11.2524 95.3948C10.5848 95.6687 9.42504 95.8771 7.67986 95.9612L7.77614 97.9588C9.57229 97.8723 11.0152 97.6539 12.0116 97.2452L11.2524 95.3948ZM6.728 96.96C6.728 97.7354 6.79588 98.7558 6.92531 100.007L8.91469 99.8011C8.78812 98.5775 8.728 97.6352 8.728 96.96H6.728ZM6.92496 100.004C7.05267 101.281 7.112 102.166 7.112 102.688H9.112C9.112 102.058 9.04334 101.087 8.91504 99.8045L6.92496 100.004ZM7.112 102.688C7.112 102.7 7.11065 102.703 7.11124 102.701C7.11187 102.699 7.1125 102.698 7.11051 102.702C7.10653 102.708 7.07859 102.751 6.9813 102.816L8.0907 104.48C8.68841 104.082 9.112 103.477 9.112 102.688H7.112ZM6.95932 102.831C6.77532 102.961 6.56335 103.032 6.288 103.032V105.032C6.95132 105.032 7.57135 104.847 8.11268 104.465L6.95932 102.831ZM6.288 103.032C6.05558 103.032 5.94663 102.965 5.84005 102.805L4.17595 103.915C4.6667 104.651 5.41109 105.032 6.288 105.032V103.032ZM5.90243 102.913C5.6695 102.447 5.50278 101.855 5.42678 101.114L3.43722 101.318C3.53189 102.241 3.74917 103.078 4.11357 103.807L5.90243 102.913ZM5.42678 101.114C5.34594 100.326 5.304 99.3696 5.304 98.24H3.304C3.304 99.4144 3.34739 100.442 3.43722 101.318L5.42678 101.114ZM5.304 98.24C5.304 97.0635 5.37631 95.7207 5.52331 94.2088L3.53269 94.0152C3.38102 95.5753 3.304 96.9845 3.304 98.24H5.304ZM5.5252 94.1868C5.65349 92.4762 5.72 91.1863 5.72 90.336H3.72C3.72 91.1071 3.65851 92.3345 3.5308 94.0372L5.5252 94.1868ZM5.72 90.336C5.72 89.6192 5.65126 88.6907 5.52141 87.5654L3.53459 87.7946C3.66074 88.8879 3.72 89.7301 3.72 90.336H5.72ZM5.52188 87.5696C5.50177 87.3886 5.47057 87.0669 5.42789 86.5975L3.43611 86.7785C3.47877 87.2478 3.51156 87.5874 3.53412 87.7904L5.52188 87.5696ZM5.42789 86.5975C5.38738 86.1518 5.368 85.7559 5.368 85.408H3.368C3.368 85.8281 3.39129 86.2856 3.43611 86.7785L5.42789 86.5975ZM5.368 85.408C5.368 85.3931 5.36931 85.3845 5.37001 85.3808C5.37038 85.3789 5.37069 85.3778 5.37083 85.3773C5.37096 85.3769 5.37105 85.3767 5.37108 85.3766C5.37111 85.3765 5.37125 85.3762 5.37162 85.3755C5.372 85.3748 5.3728 85.3734 5.37423 85.3713C5.37699 85.3673 5.38316 85.3591 5.39511 85.3471L3.98089 83.9329C3.58216 84.3316 3.368 84.8411 3.368 85.408H5.368ZM5.39511 85.3471C5.54478 85.1974 5.66149 85.1349 5.74022 85.1087L5.10778 83.2113C4.67451 83.3557 4.30056 83.6132 3.98089 83.9329L5.39511 85.3471ZM5.58247 85.1474C7.26145 84.8779 8.89373 84.744 10.48 84.744V82.744C8.78094 82.744 7.04255 82.8874 5.26553 83.1726L5.58247 85.1474ZM10.48 84.744C13.1554 84.744 15.2862 85.2449 16.929 86.1809L17.9191 84.4431C15.8925 83.2884 13.3939 82.744 10.48 82.744V84.744ZM16.929 86.1809C18.4474 87.0461 19.176 88.3014 19.176 90.08H21.176C21.176 87.592 20.0699 85.6686 17.9191 84.4431L16.929 86.1809ZM19.176 90.08C19.176 90.5849 19.0633 91.0768 18.8274 91.5652L20.6286 92.4347C20.9901 91.6859 21.176 90.8978 21.176 90.08H19.176ZM18.821 91.5789C18.6042 92.0458 18.3107 92.4261 17.9391 92.733L19.2129 94.275C19.8226 93.7713 20.2971 93.1489 20.635 92.4211L18.821 91.5789ZM17.9657 92.7119C16.7475 93.6505 15.565 94.2519 14.4183 94.5527L14.9257 96.4873C16.3817 96.1054 17.8019 95.3629 19.1863 94.2961L17.9657 92.7119ZM17.816 89.984C17.816 88.519 17.0016 87.397 15.691 86.6261L14.677 88.3499C15.5424 88.859 15.816 89.401 15.816 89.984H17.816ZM15.7034 86.6335C14.3933 85.8371 12.6365 85.496 10.544 85.496V87.496C12.4622 87.496 13.7987 87.8162 14.6646 88.3425L15.7034 86.6335ZM10.544 85.496C9.56777 85.496 8.6029 85.6123 7.65104 85.8445L8.12496 87.7875C8.92244 87.593 9.72823 87.496 10.544 87.496V85.496ZM6.88819 86.8356L6.92019 88.4676L8.91981 88.4284L8.88781 86.7964L6.88819 86.8356ZM6.92 88.448C6.92 89.364 6.88877 90.2575 6.82654 91.1288L8.82146 91.2712C8.88723 90.3505 8.92 89.4094 8.92 88.448H6.92ZM6.82654 91.1288C6.76063 92.0515 6.728 93.0354 6.728 94.08H8.728C8.728 93.0766 8.75937 92.1405 8.82146 91.2712L6.82654 91.1288ZM7.95704 95.0534C8.25686 94.9829 8.58146 94.9371 8.93256 94.9186L8.82744 92.9214C8.36788 92.9456 7.92447 93.0065 7.49896 93.1066L7.95704 95.0534ZM8.98468 94.9145C9.38398 94.8725 9.68138 94.8376 9.8444 94.8104L9.5156 92.8376C9.42262 92.8531 9.18669 92.8822 8.77532 92.9255L8.98468 94.9145ZM9.77054 94.8199C10.7273 94.7329 11.5123 94.6207 12.0985 94.4741L11.6135 92.5339C11.1757 92.6433 10.51 92.7444 9.58946 92.8281L9.77054 94.8199ZM12.1531 94.4589C13.1236 94.1569 13.934 93.8835 14.5787 93.639L13.8693 91.769C13.2767 91.9938 12.5084 92.2538 11.5589 92.5491L12.1531 94.4589ZM14.5954 93.6325C15.3351 93.3366 16.0134 92.9293 16.6272 92.4137L15.3408 90.8823C14.888 91.2627 14.3929 91.5594 13.8526 91.7755L14.5954 93.6325ZM16.6299 92.4114C17.3752 91.7808 17.816 90.96 17.816 89.984H15.816C15.816 90.288 15.7022 90.5765 15.3381 90.8846L16.6299 92.4114ZM23.013 94.784L23.9514 95.1297L23.9542 95.1219L23.013 94.784ZM24.197 92.512L23.385 91.9284L23.385 91.9284L24.197 92.512ZM26.533 90.848L26.9044 91.7765L26.9123 91.7733L26.9202 91.77L26.533 90.848ZM31.973 90.528L31.7139 91.4939L31.7196 91.4954L31.973 90.528ZM33.829 91.616L33.008 92.1871L33.0142 92.1958L33.829 91.616ZM34.629 96.352L33.7835 95.818L33.7732 95.8343L33.7636 95.851L34.629 96.352ZM33.605 97.664L32.8816 96.9735L32.878 96.9774L33.605 97.664ZM31.877 98.432L31.7169 97.4449L31.7126 97.4456L31.877 98.432ZM27.781 98.496L27.6312 99.4847L27.6459 99.4869L27.6607 99.4887L27.781 98.496ZM25.733 98.112L25.9533 97.1366L24.5999 96.831L24.738 98.2115L25.733 98.112ZM26.053 99.36L26.9746 98.9719L26.9746 98.9719L26.053 99.36ZM26.661 100.288L27.3497 99.563L27.3418 99.5554L27.3337 99.5481L26.661 100.288ZM27.973 101.056L27.7414 102.029L27.7514 102.031L27.973 101.056ZM31.909 100.832L31.5703 99.8911L31.5591 99.8951L31.548 99.8994L31.909 100.832ZM34.149 100.928L33.3808 101.568L33.3946 101.585L33.4091 101.601L34.149 100.928ZM33.541 103.168L33.0579 102.292L33.0579 102.292L33.541 103.168ZM31.397 103.936L31.5829 104.919L31.593 104.917L31.603 104.915L31.397 103.936ZM26.565 103.616L26.2046 104.549L26.2046 104.549L26.565 103.616ZM24.229 102.08L23.4697 102.731L23.4839 102.747L23.4987 102.763L24.229 102.08ZM23.013 99.936L22.0691 100.266L22.0718 100.274L23.013 99.936ZM28.133 93.184L28.4747 94.1238L28.4933 94.117L28.5116 94.1095L28.133 93.184ZM26.981 93.92L27.707 94.6078L27.7121 94.6023L26.981 93.92ZM26.181 94.912L25.3172 94.4081L25.31 94.4205L25.3031 94.4331L26.181 94.912ZM25.925 95.904L24.93 95.8045L24.8494 96.6098L25.6202 96.8564L25.925 95.904ZM31.365 95.744L30.8887 94.8647L30.8808 94.869L30.8729 94.8734L31.365 95.744ZM23.565 97.216C23.565 96.5309 23.6908 95.837 23.9513 95.1297L22.0747 94.4383C21.7379 95.3523 21.565 96.2798 21.565 97.216H23.565ZM23.9542 95.1219C24.2231 94.3729 24.5754 93.699 25.009 93.0956L23.385 91.9284C22.8373 92.6903 22.4003 93.5311 22.0718 94.4461L23.9542 95.1219ZM25.009 93.0956C25.3549 92.6144 25.9518 92.1575 26.9044 91.7765L26.1616 89.9195C24.9809 90.3918 24.0204 91.0443 23.385 91.9284L25.009 93.0956ZM26.9202 91.77C27.9089 91.3547 28.7231 91.176 29.381 91.176V89.176C28.3749 89.176 27.2904 89.4453 26.1458 89.926L26.9202 91.77ZM29.381 91.176C30.1416 91.176 30.9186 91.2805 31.7139 91.4938L32.2321 89.5622C31.2781 89.3062 30.327 89.176 29.381 89.176V91.176ZM31.7196 91.4954C32.506 91.7013 32.8601 91.9744 33.0081 92.1871L34.6499 91.0449C34.1152 90.2763 33.232 89.824 32.2264 89.5606L31.7196 91.4954ZM33.0142 92.1958C33.7164 93.1827 34.013 94.0721 34.013 94.88H36.013C36.013 93.5546 35.5202 92.268 34.6438 91.0362L33.0142 92.1958ZM34.013 94.88C34.013 95.3054 33.9199 95.6021 33.7835 95.818L35.4745 96.886C35.8502 96.2912 36.013 95.6066 36.013 94.88H34.013ZM33.7636 95.851C33.5805 96.1672 33.2942 96.5413 32.8816 96.9735L34.3284 98.3545C34.8118 97.8481 35.2082 97.3475 35.4944 96.853L33.7636 95.851ZM32.878 96.9774C32.7261 97.1382 32.3952 97.3349 31.7169 97.4449L32.0371 99.4191C32.9375 99.2731 33.7585 98.9578 34.332 98.3506L32.878 96.9774ZM31.7126 97.4456C30.9982 97.5647 30.2852 97.624 29.573 97.624V99.624C30.3968 99.624 31.2198 99.5553 32.0414 99.4184L31.7126 97.4456ZM29.573 97.624C29.1359 97.624 28.5813 97.5857 27.9013 97.5033L27.6607 99.4887C28.3887 99.577 29.0288 99.624 29.573 99.624V97.624ZM27.9308 97.5073C27.2493 97.404 26.5901 97.2804 25.9533 97.1366L25.5127 99.0874C26.1985 99.2423 26.9047 99.3746 27.6312 99.4847L27.9308 97.5073ZM24.738 98.2115C24.7908 98.74 24.923 99.2531 25.1314 99.7481L26.9746 98.9719C26.8417 98.6562 26.7605 98.3373 26.728 98.0125L24.738 98.2115ZM25.1314 99.7481C25.338 100.239 25.6129 100.687 25.9883 101.028L27.3337 99.5481C27.2398 99.4627 27.1094 99.2919 26.9746 98.9719L25.1314 99.7481ZM25.9723 101.013C26.4919 101.507 27.0804 101.871 27.7414 102.029L28.2046 100.083C27.9696 100.027 27.6834 99.88 27.3497 99.563L25.9723 101.013ZM27.7514 102.031C28.3201 102.16 28.9986 102.216 29.765 102.216V100.216C29.0807 100.216 28.5646 100.165 28.1946 100.081L27.7514 102.031ZM29.765 102.216C30.6462 102.216 31.4843 102.069 32.27 101.765L31.548 99.8994C31.011 100.107 30.4198 100.216 29.765 100.216V102.216ZM32.2477 101.773C32.7344 101.598 33.0465 101.544 33.221 101.544V99.544C32.7129 99.544 32.1503 99.6823 31.5703 99.8911L32.2477 101.773ZM33.221 101.544C33.3194 101.544 33.3639 101.56 33.3746 101.564C33.38 101.566 33.3806 101.567 33.3789 101.566C33.3773 101.565 33.3778 101.565 33.3808 101.568L34.9172 100.288C34.4729 99.7547 33.8526 99.544 33.221 99.544V101.544ZM33.4091 101.601C33.4213 101.614 33.469 101.666 33.469 101.856H35.469C35.469 101.278 35.3033 100.711 34.8889 100.255L33.4091 101.601ZM33.469 101.856C33.469 101.907 33.4769 102.061 33.0579 102.292L34.0241 104.044C34.8424 103.592 35.469 102.872 35.469 101.856H33.469ZM33.0579 102.292C32.5394 102.578 31.921 102.804 31.191 102.957L31.603 104.915C32.4944 104.727 33.3052 104.44 34.0241 104.044L33.0579 102.292ZM31.2111 102.953C30.4497 103.097 29.8786 103.16 29.477 103.16V105.16C30.0567 105.16 30.7657 105.073 31.5829 104.919L31.2111 102.953ZM29.477 103.16C28.598 103.16 27.7495 103.002 26.9254 102.683L26.2046 104.549C27.2578 104.956 28.3506 105.16 29.477 105.16V103.16ZM26.9254 102.683C26.1115 102.369 25.4641 101.936 24.9593 101.397L23.4987 102.763C24.2313 103.546 25.1412 104.138 26.2046 104.549L26.9254 102.683ZM24.9883 101.429C24.5646 100.935 24.2168 100.33 23.9542 99.5981L22.0718 100.274C22.4065 101.206 22.8694 102.03 23.4697 102.731L24.9883 101.429ZM23.9569 99.6056C23.6976 98.8649 23.565 98.0705 23.565 97.216H21.565C21.565 98.2815 21.7311 99.3004 22.0691 100.266L23.9569 99.6056ZM29.541 91.896C28.9317 91.896 28.3341 92.0213 27.7544 92.2585L28.5116 94.1095C28.8705 93.9627 29.2116 93.896 29.541 93.896V91.896ZM27.7913 92.2442C27.1947 92.4611 26.6705 92.787 26.2499 93.2377L27.7121 94.6023C27.8888 94.413 28.1327 94.2482 28.4747 94.1238L27.7913 92.2442ZM26.255 93.2323C25.8559 93.6536 25.5256 94.051 25.3172 94.4081L27.0448 95.4159C27.1351 95.261 27.3381 94.9971 27.707 94.6077L26.255 93.2323ZM25.3031 94.4331C25.0841 94.8347 24.9788 95.3157 24.93 95.8045L26.92 96.0035C26.9565 95.6389 27.0219 95.4586 27.0589 95.3909L25.3031 94.4331ZM25.6202 96.8564C26.0022 96.9786 26.5084 97.0491 27.0803 97.0931C27.6699 97.1384 28.3963 97.16 29.253 97.16V95.16C28.4244 95.16 27.7535 95.1389 27.2337 95.0989C26.6963 95.0576 26.3812 95 26.2298 94.9516L25.6202 96.8564ZM29.253 97.16C30.246 97.16 31.15 97.0142 31.8571 96.6146L30.8729 94.8734C30.5987 95.0285 30.0947 95.16 29.253 95.16V97.16ZM31.8413 96.6233C32.5635 96.2321 33.133 95.5833 33.133 94.656H31.133C31.133 94.6642 31.1324 94.6693 31.1321 94.6717C31.1319 94.6729 31.1317 94.6737 31.1316 94.6741C31.1315 94.6746 31.1314 94.6748 31.1314 94.6749C31.1314 94.675 31.1314 94.6751 31.1313 94.6753C31.1312 94.6755 31.131 94.676 31.1306 94.6768C31.1298 94.6782 31.128 94.6817 31.124 94.6873C31.108 94.71 31.0499 94.7774 30.8887 94.8647L31.8413 96.6233ZM33.133 94.656C33.133 93.728 32.5407 93.0558 31.8482 92.603L30.7538 94.277C30.9575 94.4102 31.0559 94.5167 31.0997 94.5807C31.136 94.6338 31.133 94.6529 31.133 94.656H33.133ZM31.8482 92.603C31.143 92.1419 30.3681 91.896 29.541 91.896V93.896C29.9513 93.896 30.3497 94.0128 30.7538 94.277L31.8482 92.603ZM50.679 90.368L50.1382 91.2092L50.1725 91.2312L50.2084 91.2504L50.679 90.368ZM50.775 93.12L49.8073 92.8676L49.8049 92.8775L50.775 93.12ZM50.455 94.56L51.4466 94.6893L51.4478 94.6799L51.4489 94.6704L50.455 94.56ZM50.167 105.6L51.1631 105.512L51.1629 105.509L50.167 105.6ZM50.423 108.224L49.4283 108.328L49.4298 108.341L50.423 108.224ZM50.103 110.656L49.3719 109.974L49.361 109.985L49.3504 109.997L50.103 110.656ZM47.959 110.848L47.2519 111.555L47.2687 111.572L47.2863 111.588L47.959 110.848ZM47.511 109.92L46.5211 110.061L46.5257 110.094L46.5325 110.126L47.511 109.92ZM47.191 107.104L46.1939 107.181L46.1946 107.189L46.1954 107.198L47.191 107.104ZM47.095 102.752L46.0961 102.704L46.0961 102.704L47.095 102.752ZM47.127 101.856H48.127V99.0753L46.356 101.219L47.127 101.856ZM45.367 103.008L45.6913 103.954L45.699 103.951L45.7066 103.949L45.367 103.008ZM41.143 103.072L40.7534 103.993L40.7743 104.002L40.7957 104.01L41.143 103.072ZM39.383 101.792L40.0901 101.085L40.0901 101.085L39.383 101.792ZM38.071 99.968L37.1655 100.392L37.1709 100.404L37.1766 100.415L38.071 99.968ZM37.911 94.912L36.9359 94.6904L36.9359 94.6904L37.911 94.912ZM38.935 92.544L38.1786 91.8898L38.1524 91.9202L38.1286 91.9526L38.935 92.544ZM41.431 90.784L41.7954 91.7152L41.8041 91.7118L41.8128 91.7083L41.431 90.784ZM46.199 90.56L45.8166 91.484L45.8166 91.484L46.199 90.56ZM47.863 91.552L47.2261 92.323L48.2909 93.2026L48.7942 91.9164L47.863 91.552ZM48.663 90.464L49.2295 91.288L49.2465 91.2764L49.263 91.264L48.663 90.464ZM45.591 100.192L45.0559 99.3472L45.0494 99.3513L45.043 99.3555L45.591 100.192ZM46.839 98.624L47.7968 98.9113L47.8166 98.8456L47.8271 98.7777L46.839 98.624ZM47.127 94.336L48.1267 94.3585L48.1346 94.0084L47.9224 93.73L47.127 94.336ZM45.847 93.344L45.4303 94.2531L45.4462 94.2604L45.4624 94.2671L45.847 93.344ZM42.903 93.28L42.5868 92.3313L42.5759 92.335L42.903 93.28ZM41.655 94.112L40.8606 93.5045L40.8377 93.5346L40.817 93.5663L41.655 94.112ZM40.919 98.816L39.9555 99.0836L39.9555 99.0836L40.919 98.816ZM41.559 99.776L40.9343 100.557L40.9394 100.561L41.559 99.776ZM42.647 100.544L42.1325 101.401L42.1654 101.421L42.1998 101.438L42.647 100.544ZM49.751 91.08C49.8586 91.08 49.9826 91.1091 50.1382 91.2092L51.2198 89.5268C50.7781 89.2429 50.2834 89.08 49.751 89.08V91.08ZM50.2084 91.2504C50.2154 91.2541 50.2097 91.2521 50.1981 91.241C50.186 91.2294 50.174 91.2142 50.1648 91.1976C50.1559 91.1816 50.154 91.1721 50.1546 91.1749C50.1554 91.1784 50.159 91.1961 50.159 91.232H52.159C52.159 90.8981 52.0927 90.5495 51.9132 90.2264C51.7303 89.8972 51.4617 89.6521 51.1496 89.4856L50.2084 91.2504ZM50.159 91.232C50.159 91.23 50.159 91.24 50.1568 91.2652C50.1547 91.2897 50.1509 91.3229 50.1448 91.3662C50.1325 91.4535 50.1125 91.5679 50.0831 91.7127C50.0241 92.0024 49.9331 92.3857 49.8074 92.8676L51.7426 93.3724C51.8729 92.873 51.9739 92.4509 52.0429 92.1113C52.1075 91.7939 52.159 91.4805 52.159 91.232H50.159ZM49.8049 92.8775C49.6193 93.6199 49.4916 94.1753 49.4611 94.4496L51.4489 94.6704C51.4611 94.5607 51.5467 94.1561 51.7451 93.3625L49.8049 92.8775ZM49.4634 94.4307C49.199 96.4576 49.071 99.2924 49.071 102.912H51.071C51.071 99.321 51.199 96.5877 51.4466 94.6893L49.4634 94.4307ZM49.071 102.912C49.071 104.016 49.1033 104.945 49.1711 105.691L51.1629 105.509C51.1027 104.847 51.071 103.984 51.071 102.912H49.071ZM49.1709 105.688C49.2355 106.42 49.3214 107.3 49.4284 108.328L51.4176 108.12C51.3113 107.1 51.2265 106.231 51.1631 105.512L49.1709 105.688ZM49.4298 108.341C49.4722 108.701 49.5035 108.983 49.524 109.188C49.5342 109.29 49.5414 109.37 49.5459 109.429C49.551 109.495 49.551 109.513 49.551 109.504H51.551C51.551 109.301 51.4974 108.798 51.4162 108.107L49.4298 108.341ZM49.551 109.504C49.551 109.705 49.4933 109.844 49.3719 109.974L50.8341 111.338C51.31 110.828 51.551 110.199 51.551 109.504H49.551ZM49.3504 109.997C49.2038 110.165 49.1218 110.168 49.079 110.168V112.168C49.8042 112.168 50.4048 111.83 50.8556 111.315L49.3504 109.997ZM49.079 110.168C48.8882 110.168 48.7638 110.148 48.6897 110.126C48.6184 110.106 48.6125 110.091 48.6317 110.108L47.2863 111.588C47.7896 112.045 48.4627 112.168 49.079 112.168V110.168ZM48.6661 110.141C48.6322 110.107 48.5493 109.998 48.4896 109.714L46.5325 110.126C46.6433 110.653 46.8591 111.162 47.2519 111.555L48.6661 110.141ZM48.501 109.779C48.3974 109.053 48.2924 108.132 48.1866 107.01L46.1954 107.198C46.3029 108.337 46.4113 109.293 46.5211 110.061L48.501 109.779ZM48.1881 107.027C48.1041 105.936 48.063 104.981 48.063 104.16H46.063C46.063 105.045 46.1072 106.053 46.1939 107.181L48.1881 107.027ZM48.063 104.16C48.063 103.684 48.0734 103.23 48.0939 102.8L46.0961 102.704C46.074 103.17 46.063 103.655 46.063 104.16H48.063ZM48.0939 102.8C48.115 102.356 48.127 102.033 48.127 101.856H46.127C46.127 101.978 46.1177 102.252 46.0961 102.704L48.0939 102.8ZM46.356 101.219C46.0927 101.538 45.6738 101.834 45.0274 102.067L45.7066 103.949C46.5962 103.627 47.3507 103.155 47.898 102.493L46.356 101.219ZM45.0427 102.062C44.3808 102.289 43.787 102.392 43.255 102.392V104.392C44.0457 104.392 44.8599 104.239 45.6913 103.954L45.0427 102.062ZM43.255 102.392C42.5023 102.392 41.9235 102.295 41.4903 102.134L40.7957 104.01C41.5145 104.276 42.3437 104.392 43.255 104.392V102.392ZM41.5326 102.151C41.1374 101.984 40.6554 101.65 40.0901 101.085L38.6759 102.499C39.3479 103.171 40.0392 103.691 40.7534 103.993L41.5326 102.151ZM40.0901 101.085C39.6337 100.628 39.2593 100.108 38.9654 99.5208L37.1766 100.415C37.5654 101.193 38.0656 101.889 38.6759 102.499L40.0901 101.085ZM38.9765 99.5436C38.7181 98.9924 38.591 98.4225 38.591 97.824H36.591C36.591 98.7188 36.7839 99.5783 37.1655 100.392L38.9765 99.5436ZM38.591 97.824C38.591 96.8928 38.69 95.9966 38.8861 95.1336L36.9359 94.6904C36.7053 95.7047 36.591 96.7499 36.591 97.824H38.591ZM38.8861 95.1336C39.0754 94.3007 39.3683 93.6441 39.7414 93.1354L38.1286 91.9526C37.563 92.7239 37.1732 93.646 36.9359 94.6904L38.8861 95.1336ZM39.6914 93.1982C40.2667 92.5329 40.9637 92.0407 41.7954 91.7152L41.0666 89.8528C39.9356 90.2953 38.9686 90.9765 38.1786 91.8898L39.6914 93.1982ZM41.8128 91.7083C42.6776 91.3511 43.5508 91.176 44.439 91.176V89.176C43.2792 89.176 42.1471 89.4063 41.0492 89.8597L41.8128 91.7083ZM44.439 91.176C44.8383 91.176 45.2947 91.268 45.8166 91.484L46.5814 89.636C45.866 89.34 45.149 89.176 44.439 89.176V91.176ZM45.8166 91.484C46.3481 91.7039 46.8161 91.9843 47.2261 92.323L48.4999 90.781C47.9286 90.3091 47.2872 89.9281 46.5814 89.636L45.8166 91.484ZM48.7942 91.9164C48.9331 91.5614 49.0927 91.3821 49.2295 91.288L48.0965 89.64C47.5507 90.0152 47.1769 90.5612 46.9318 91.1876L48.7942 91.9164ZM49.263 91.264C49.4515 91.1226 49.6074 91.08 49.751 91.08V89.08C49.1266 89.08 48.5572 89.2934 48.063 89.664L49.263 91.264ZM43.735 101.8C44.5837 101.8 45.3898 101.519 46.139 101.028L45.043 99.3555C44.5549 99.6753 44.1236 99.8 43.735 99.8V101.8ZM46.1261 101.037C46.9405 100.521 47.5264 99.8129 47.7968 98.9113L45.8812 98.3367C45.7676 98.7151 45.5215 99.0523 45.0559 99.3472L46.1261 101.037ZM47.8271 98.7777C47.9869 97.7507 48.0838 96.268 48.1267 94.3585L46.1273 94.3135C46.0848 96.2013 45.9898 97.5773 45.8509 98.4703L47.8271 98.7777ZM47.9224 93.73C47.4762 93.1442 46.9087 92.703 46.2316 92.4209L45.4624 94.2671C45.8093 94.4116 46.0952 94.6318 46.3316 94.942L47.9224 93.73ZM46.2637 92.4349C45.677 92.166 45.0818 91.992 44.503 91.992V93.992C44.6922 93.992 44.993 94.0526 45.4303 94.2531L46.2637 92.4349ZM44.503 91.992C43.8828 91.992 43.2415 92.1131 42.5868 92.3313L43.2192 94.2287C43.7165 94.0629 44.1418 93.992 44.503 93.992V91.992ZM42.5759 92.335C41.8883 92.573 41.287 92.947 40.8606 93.5045L42.4494 94.7194C42.5776 94.5517 42.8084 94.371 43.2301 94.225L42.5759 92.335ZM40.817 93.5663C40.0971 94.672 39.759 95.9677 39.759 97.408H41.759C41.759 96.2883 42.0183 95.3867 42.493 94.6577L40.817 93.5663ZM39.759 97.408C39.759 98.0206 39.8172 98.5859 39.9555 99.0836L41.8825 98.5484C41.8074 98.2781 41.759 97.9047 41.759 97.408H39.759ZM39.9555 99.0836C40.1201 99.6761 40.4552 100.174 40.9343 100.557L42.1837 98.9951C42.0228 98.8664 41.9313 98.7239 41.8825 98.5484L39.9555 99.0836ZM40.9394 100.561C41.3665 100.898 41.7651 101.181 42.1325 101.401L43.1615 99.6865C42.8889 99.523 42.5622 99.2939 42.1786 98.9911L40.9394 100.561ZM42.1998 101.438C42.6809 101.679 43.1968 101.8 43.735 101.8V99.8C43.5052 99.8 43.2958 99.7504 43.0942 99.6496L42.1998 101.438ZM57.87 94.464L56.8714 94.4114L56.871 94.4186L57.87 94.464ZM58.414 100.288L57.4993 100.692L57.5089 100.714L57.5196 100.735L58.414 100.288ZM59.214 100.992L58.8079 101.906L58.8169 101.91L58.8259 101.914L59.214 100.992ZM61.294 101.088L61.653 102.021L61.653 102.021L61.294 101.088ZM62.062 100.608L61.4218 99.8398L61.4053 99.8536L61.3893 99.8681L62.062 100.608ZM62.798 99.904L63.5352 100.58L63.5395 100.575L62.798 99.904ZM63.566 98.368L62.5882 98.1585L62.5853 98.1722L62.5827 98.1859L63.566 98.368ZM63.79 96L64.7898 96.0217L64.79 96.0109V96H63.79ZM63.886 94.208L62.8952 94.0729L62.8935 94.0852L62.8921 94.0976L63.886 94.208ZM64.43 90.464L63.6491 89.8393L63.6437 89.8462L64.43 90.464ZM66.35 90.24L65.8794 91.1224L65.9136 91.1406L65.9492 91.1562L66.35 90.24ZM67.022 90.752L66.1478 91.2376L66.1529 91.2468L66.1582 91.2559L67.022 90.752ZM67.15 92.576L68.0987 92.8922L68.1075 92.8659L68.1148 92.8391L67.15 92.576ZM67.054 95.072L66.0565 95.1432L66.0591 95.1785L66.0641 95.2134L67.054 95.072ZM67.47 99.616L66.5155 99.9143L66.5186 99.9238L67.47 99.616ZM68.43 101.536L67.6226 102.126L67.661 102.179L67.7059 102.226L68.43 101.536ZM69.294 102.528L68.4748 103.101L68.4892 103.122L68.5046 103.142L69.294 102.528ZM69.134 103.776L69.8097 104.513L69.8097 104.513L69.134 103.776ZM66.254 103.328L65.5604 104.048L65.5739 104.061L65.588 104.074L66.254 103.328ZM64.974 101.216L65.925 100.907L65.3702 99.1997L64.2106 100.57L64.974 101.216ZM64.046 102.24L63.32 101.552L63.32 101.552L64.046 102.24ZM62.958 103.232L63.5412 104.044L63.5497 104.038L63.558 104.032L62.958 103.232ZM57.998 103.648L57.5385 104.536L57.5508 104.542L57.998 103.648ZM56.302 102.4L55.5806 103.093L55.5877 103.1L55.5949 103.107L56.302 102.4ZM55.246 100.704L56.198 100.398L56.1746 100.325L56.1404 100.257L55.246 100.704ZM55.054 100.192L54.0925 100.467L54.1014 100.498L54.1123 100.528L55.054 100.192ZM54.926 98.848L55.926 98.848L55.926 98.8417L54.926 98.848ZM54.894 93.728L53.894 93.728L53.894 93.7342L54.894 93.728ZM54.67 92.32L55.6438 92.0928L55.6368 92.0625L55.6278 92.0327L54.67 92.32ZM54.83 90.464L54.1543 89.7268L54.1383 89.7415L54.1229 89.7569L54.83 90.464ZM55.822 91.112C56.2863 91.112 56.4866 91.2506 56.6093 91.4124C56.7716 91.6263 56.934 92.066 56.934 92.896H58.934C58.934 91.87 58.7444 90.9177 58.2027 90.2036C57.6214 89.4374 56.7657 89.112 55.822 89.112V91.112ZM56.934 92.896C56.934 93.0991 56.9144 93.5936 56.8714 94.4114L58.8686 94.5166C58.9109 93.713 58.934 93.1622 58.934 92.896H56.934ZM56.871 94.4186C56.8281 95.3629 56.806 96.1163 56.806 96.672H58.806C58.806 96.161 58.8266 95.4424 58.869 94.5094L56.871 94.4186ZM56.806 96.672C56.806 98.2425 57.0171 99.6009 57.4993 100.692L59.3287 99.8838C59.0002 99.1404 58.806 98.0882 58.806 96.672H56.806ZM57.5196 100.735C57.7971 101.29 58.268 101.666 58.8079 101.906L59.6201 100.078C59.392 99.9768 59.3295 99.883 59.3084 99.8408L57.5196 100.735ZM58.8259 101.914C59.2903 102.109 59.7723 102.248 60.238 102.248V100.248C60.1491 100.248 59.9483 100.216 59.6021 100.07L58.8259 101.914ZM60.238 102.248C60.7383 102.248 61.2228 102.187 61.653 102.021L60.935 100.155C60.8105 100.203 60.591 100.248 60.238 100.248V102.248ZM61.653 102.021C62.0536 101.867 62.4146 101.639 62.7347 101.348L61.3893 99.8681C61.2401 100.004 61.0891 100.095 60.935 100.155L61.653 102.021ZM62.7022 101.376C62.9939 101.133 63.2715 100.867 63.5352 100.58L62.0608 99.2283C61.8551 99.4527 61.6421 99.6562 61.4218 99.8398L62.7022 101.376ZM63.5395 100.575C64.0651 99.994 64.4078 99.3142 64.5493 98.5501L62.5827 98.1859C62.5109 98.5738 62.3416 98.918 62.0565 99.2331L63.5395 100.575ZM64.5438 98.5775C64.6905 97.8929 64.7678 97.0332 64.7898 96.0217L62.7902 95.9783C62.7696 96.9295 62.6975 97.6485 62.5882 98.1585L64.5438 98.5775ZM64.79 96C64.79 95.4158 64.8202 94.8554 64.8799 94.3184L62.8921 94.0976C62.8238 94.7126 62.79 95.3469 62.79 96H64.79ZM64.8768 94.3431C65.0099 93.3669 65.078 92.4466 65.078 91.584H63.078C63.078 92.3427 63.0181 93.1717 62.8952 94.0729L64.8768 94.3431ZM65.078 91.584C65.078 91.3182 65.1439 91.174 65.2163 91.0818L63.6437 89.8462C63.2468 90.3513 63.078 90.9538 63.078 91.584H65.078ZM65.2109 91.0887C65.2481 91.0422 65.3027 90.984 65.518 90.984V88.984C64.7946 88.984 64.1239 89.2458 63.6491 89.8393L65.2109 91.0887ZM65.518 90.984C65.5153 90.984 65.543 90.9838 65.6079 91.0038C65.6726 91.0237 65.7625 91.06 65.8794 91.1224L66.8206 89.3576C66.4276 89.148 65.9825 88.984 65.518 88.984V90.984ZM65.9492 91.1562C66.0688 91.2085 66.1359 91.251 66.168 91.2754C66.1999 91.2998 66.1776 91.2912 66.1478 91.2376L67.8962 90.2664C67.6314 89.7898 67.1664 89.5057 66.7508 89.3238L65.9492 91.1562ZM66.1582 91.2559C66.184 91.3 66.246 91.4534 66.246 91.808H68.246C68.246 91.2666 68.1587 90.716 67.8858 90.2481L66.1582 91.2559ZM66.246 91.808C66.246 92.0086 66.2228 92.175 66.1852 92.3129L68.1148 92.8391C68.2052 92.5077 68.246 92.162 68.246 91.808H66.246ZM66.2013 92.2598C66.049 92.7167 65.99 93.2382 65.99 93.792H67.99C67.99 93.3645 68.0377 93.0753 68.0987 92.8922L66.2013 92.2598ZM65.99 93.792C65.99 94.087 66.0138 94.5451 66.0565 95.1432L68.0515 95.0008C68.0089 94.4043 67.99 94.009 67.99 93.792H65.99ZM66.0641 95.2134C66.1211 95.6129 66.15 96.0242 66.15 96.448H68.15C68.15 95.9331 68.1149 95.4271 68.044 94.9306L66.0641 95.2134ZM66.15 96.448C66.15 97.8986 66.255 99.0806 66.5155 99.9143L68.4245 99.3177C68.2583 98.7861 68.15 97.856 68.15 96.448H66.15ZM66.5186 99.9238C66.7824 100.739 67.1481 101.477 67.6226 102.126L69.2374 100.946C68.9012 100.486 68.627 99.9434 68.4214 99.3082L66.5186 99.9238ZM67.7059 102.226C68.132 102.673 68.3729 102.956 68.4748 103.101L70.1132 101.955C69.9164 101.673 69.5813 101.295 69.1541 100.846L67.7059 102.226ZM68.5046 103.142C68.5429 103.191 68.5501 103.211 68.5458 103.201C68.5411 103.19 68.518 103.133 68.518 103.04H70.518C70.518 102.567 70.29 102.18 70.0834 101.914L68.5046 103.142ZM68.518 103.04C68.518 103.02 68.5207 103 68.5251 102.983C68.5294 102.966 68.5342 102.956 68.5354 102.953C68.5369 102.951 68.5215 102.981 68.4583 103.039L69.8097 104.513C70.1957 104.159 70.518 103.666 70.518 103.04H68.518ZM68.4583 103.039C68.3959 103.096 68.3554 103.118 68.3393 103.125C68.3263 103.13 68.327 103.128 68.334 103.128V105.128C68.9203 105.128 69.4178 104.872 69.8097 104.513L68.4583 103.039ZM68.334 103.128C67.7942 103.128 67.337 102.954 66.92 102.582L65.588 104.074C66.3656 104.768 67.2951 105.128 68.334 105.128V103.128ZM66.9476 102.608C66.5037 102.18 66.1579 101.623 65.925 100.907L64.023 101.525C64.3448 102.515 64.8523 103.366 65.5604 104.048L66.9476 102.608ZM64.2106 100.57C63.9926 100.828 63.6972 101.154 63.32 101.552L64.772 102.928C65.1628 102.515 65.4861 102.159 65.7374 101.862L64.2106 100.57ZM63.32 101.552C62.9637 101.928 62.643 102.218 62.358 102.432L63.558 104.032C63.9557 103.734 64.3603 103.362 64.772 102.928L63.32 101.552ZM62.3748 102.42C61.7538 102.866 60.9069 103.128 59.758 103.128V105.128C61.2117 105.128 62.4982 104.793 63.5412 104.044L62.3748 102.42ZM59.758 103.128C59.4236 103.128 58.9916 103.027 58.4452 102.754L57.5508 104.542C58.2844 104.909 59.0257 105.128 59.758 105.128V103.128ZM58.4574 102.76C57.9337 102.489 57.4513 102.135 57.0091 101.693L55.5949 103.107C56.1767 103.689 56.825 104.167 57.5386 104.536L58.4574 102.76ZM57.0234 101.707C56.598 101.264 56.3359 100.827 56.198 100.398L54.294 101.01C54.5401 101.776 54.982 102.469 55.5806 103.093L57.0234 101.707ZM56.1404 100.257C56.1556 100.287 56.1611 100.303 56.1505 100.277C56.1436 100.259 56.1331 100.232 56.1183 100.193C56.089 100.115 56.0484 100.003 55.9957 99.8557L54.1123 100.528C54.2051 100.788 54.2955 101.039 54.3516 101.151L56.1404 100.257ZM56.0155 99.9173C55.9695 99.7561 55.926 99.4213 55.926 98.848H53.926C53.926 99.4694 53.9679 100.031 54.0925 100.467L56.0155 99.9173ZM55.926 98.8417L55.894 93.7217L53.894 93.7342L53.926 98.8542L55.926 98.8417ZM55.894 93.728C55.894 93.3058 55.7949 92.7403 55.6438 92.0928L53.6962 92.5472C53.8437 93.1797 53.894 93.5529 53.894 93.728H55.894ZM55.6278 92.0327C55.5043 91.6208 55.478 91.4187 55.478 91.36H53.478C53.478 91.728 53.5797 92.1659 53.7122 92.6073L55.6278 92.0327ZM55.478 91.36C55.478 91.2355 55.5083 91.1999 55.5371 91.1711L54.1229 89.7569C53.6824 90.1974 53.478 90.7592 53.478 91.36H55.478ZM55.5057 91.2012C55.5469 91.1634 55.6223 91.112 55.822 91.112V89.112C55.211 89.112 54.6251 89.2952 54.1543 89.7268L55.5057 91.2012ZM72.0748 94.624L72.997 95.0108L73.0012 95.0004L72.0748 94.624ZM73.2908 92.512L72.4851 91.9196L72.4851 91.9196L73.2908 92.512ZM75.4988 90.816L75.8952 91.7341L75.9039 91.7303L75.9126 91.7264L75.4988 90.816ZM81.0348 90.72L80.6173 91.6287L80.6319 91.6354L80.6467 91.6416L81.0348 90.72ZM83.2108 92L84.079 91.5039L83.9844 91.3383L83.8354 91.2191L83.2108 92ZM83.6588 92.832L82.7738 93.2977L82.7791 93.3078L82.7846 93.3176L83.6588 92.832ZM84.1068 93.888L83.1405 94.1457L83.1484 94.1752L83.1581 94.2042L84.1068 93.888ZM82.6988 97.76L83.1083 98.6723L83.116 98.6688L83.1237 98.6652L82.6988 97.76ZM74.8268 98.144L75.0349 97.1659L73.6881 96.8794L73.8322 98.2487L74.8268 98.144ZM75.1468 99.36L76.0684 98.9719L76.0684 98.9719L75.1468 99.36ZM75.7548 100.288L76.4435 99.563L76.4355 99.5554L76.4274 99.5481L75.7548 100.288ZM77.0028 101.088L76.7016 102.042L76.7307 102.051L76.7602 102.058L77.0028 101.088ZM81.1948 100.64L80.6475 99.803L80.6403 99.8077L80.6332 99.8125L81.1948 100.64ZM83.4028 100.48L82.6345 101.12L82.6483 101.137L82.6628 101.153L83.4028 100.48ZM82.1548 103.392L81.7149 102.494L81.7075 102.498L82.1548 103.392ZM75.6268 103.616L75.9669 102.676L75.9669 102.676L75.6268 103.616ZM73.2268 102.08L72.3669 102.591L72.4178 102.676L72.4846 102.75L73.2268 102.08ZM72.1388 99.584L71.188 99.894L72.1388 99.584ZM77.2268 93.056L77.5179 94.0127L77.5305 94.0088L77.543 94.0047L77.2268 93.056ZM76.0748 93.76L76.803 94.4454L76.817 94.4304L76.8304 94.4149L76.0748 93.76ZM75.3068 94.752L74.4385 94.2559L74.4247 94.28L74.4123 94.3048L75.3068 94.752ZM75.0188 95.872L74.0233 95.7772L73.919 96.872H75.0188V95.872ZM75.6908 95.904L75.7903 94.909L75.7903 94.909L75.6908 95.904ZM76.2988 95.968L76.1883 96.9619L76.1983 96.963L76.2082 96.9639L76.2988 95.968ZM80.5548 95.68L80.0785 94.8007L80.0705 94.805L80.0627 94.8094L80.5548 95.68ZM80.4588 93.344L79.9115 94.181L79.9187 94.1857L79.9259 94.1902L80.4588 93.344ZM72.6588 96.768C72.6588 96.1233 72.7745 95.5411 72.9969 95.0107L71.1526 94.2373C70.8203 95.0296 70.6588 95.8767 70.6588 96.768H72.6588ZM73.0012 95.0004C73.2414 94.4092 73.6017 93.7771 74.0964 93.1044L72.4851 91.9196C71.9131 92.6975 71.4628 93.4735 71.1483 94.2476L73.0012 95.0004ZM74.0964 93.1044C74.511 92.5405 75.0969 92.0788 75.8952 91.7341L75.1023 89.8979C74.0233 90.3639 73.1372 91.0328 72.4851 91.9196L74.0964 93.1044ZM75.9126 91.7264C76.7116 91.3632 77.5932 91.176 78.5708 91.176V89.176C77.3297 89.176 76.1632 89.4155 75.0849 89.9056L75.9126 91.7264ZM78.5708 91.176C79.2773 91.176 79.9565 91.3251 80.6173 91.6287L81.4523 89.8113C80.5344 89.3896 79.5709 89.176 78.5708 89.176V91.176ZM80.6467 91.6416C81.3786 91.9498 82.0231 92.3305 82.5861 92.7809L83.8354 91.2191C83.1184 90.6455 82.3123 90.1729 81.4228 89.7984L80.6467 91.6416ZM82.3425 92.4961C82.4181 92.6284 82.5599 92.8912 82.7738 93.2977L84.5437 92.3663C84.331 91.9621 84.1741 91.6703 84.079 91.5039L82.3425 92.4961ZM82.7846 93.3176C82.9701 93.6516 83.082 93.9261 83.1405 94.1457L85.073 93.6303C84.9609 93.2099 84.7741 92.7804 84.5329 92.3464L82.7846 93.3176ZM83.1581 94.2042C83.2303 94.421 83.2668 94.6448 83.2668 94.88H85.2668C85.2668 94.4325 85.1965 93.995 85.0554 93.5718L83.1581 94.2042ZM83.2668 94.88C83.2668 95.4774 83.1571 95.8988 82.9965 96.1938C82.8429 96.4759 82.6154 96.6945 82.2738 96.8548L83.1237 98.6652C83.8275 98.3349 84.3839 97.8281 84.753 97.1502C85.1151 96.4852 85.2668 95.7119 85.2668 94.88H83.2668ZM82.2892 96.8477C81.413 97.2411 80.2418 97.464 78.7308 97.464V99.464C80.4197 99.464 81.8938 99.2176 83.1083 98.6723L82.2892 96.8477ZM78.7308 97.464C77.1664 97.464 75.9422 97.3589 75.0349 97.1659L74.6186 99.1221C75.7166 99.3557 77.0951 99.464 78.7308 99.464V97.464ZM73.8322 98.2487C73.886 98.7589 74.0194 99.2595 74.2251 99.7481L76.0684 98.9719C75.9328 98.6499 75.8529 98.3397 75.8213 98.0393L73.8322 98.2487ZM74.2251 99.7481C74.4317 100.239 74.7066 100.687 75.0821 101.028L76.4274 99.5481C76.3335 99.4627 76.2031 99.2919 76.0684 98.9719L74.2251 99.7481ZM75.066 101.013C75.5629 101.485 76.1067 101.854 76.7016 102.042L77.3039 100.134C77.0881 100.066 76.7999 99.9016 76.4435 99.563L75.066 101.013ZM76.7602 102.058C77.299 102.193 77.9556 102.248 78.6988 102.248V100.248C78.0339 100.248 77.5599 100.197 77.2453 100.118L76.7602 102.058ZM78.6988 102.248C79.8752 102.248 80.9316 102.027 81.7563 101.467L80.6332 99.8125C80.2633 100.064 79.6556 100.248 78.6988 100.248V102.248ZM81.742 101.477C81.989 101.315 82.1806 101.212 82.3219 101.152C82.4726 101.088 82.5133 101.096 82.4748 101.096V99.096C82.1376 99.096 81.8155 99.1944 81.5396 99.3117C81.2542 99.4329 80.9552 99.6019 80.6475 99.803L81.742 101.477ZM82.4748 101.096C82.5732 101.096 82.6176 101.112 82.6284 101.116C82.6337 101.118 82.6343 101.119 82.6327 101.118C82.631 101.117 82.6316 101.117 82.6345 101.12L84.171 99.8398C83.7267 99.3067 83.1063 99.096 82.4748 99.096V101.096ZM82.6628 101.153C82.6751 101.166 82.7228 101.218 82.7228 101.408H84.7228C84.7228 100.83 84.5571 100.263 84.1427 99.8073L82.6628 101.153ZM82.7228 101.408C82.7228 101.678 82.5879 102.066 81.7149 102.494L82.5946 104.29C83.8123 103.694 84.7228 102.759 84.7228 101.408H82.7228ZM81.7075 102.498C80.8403 102.931 79.8342 103.16 78.6667 103.16V105.16C80.102 105.16 81.4212 104.877 82.602 104.286L81.7075 102.498ZM78.6667 103.16C77.7635 103.16 76.865 103 75.9669 102.676L75.2866 104.556C76.3938 104.957 77.522 105.16 78.6667 105.16V103.16ZM75.9669 102.676C75.0882 102.358 74.4367 101.928 73.9689 101.41L72.4846 102.75C73.2115 103.555 74.16 104.149 75.2866 104.556L75.9669 102.676ZM74.0866 101.569C73.7281 100.966 73.3931 100.205 73.0895 99.274L71.188 99.894C71.5244 100.926 71.9147 101.829 72.3669 102.591L74.0866 101.569ZM73.0895 99.274C72.7973 98.3778 72.6588 97.5441 72.6588 96.768H70.6588C70.6588 97.7839 70.8402 98.8275 71.188 99.894L73.0895 99.274ZM78.6988 91.8C78.1072 91.8 77.5095 91.9077 76.9105 92.1073L77.543 94.0047C77.968 93.863 78.3517 93.8 78.6988 93.8V91.8ZM76.9356 92.0993C76.303 92.2918 75.7436 92.6153 75.3191 93.1051L76.8304 94.4149C76.9606 94.2647 77.1691 94.1188 77.5179 94.0127L76.9356 92.0993ZM75.3466 93.0746C74.973 93.4715 74.6614 93.8659 74.4385 94.2559L76.175 95.2481C76.2935 95.0408 76.4938 94.7738 76.803 94.4454L75.3466 93.0746ZM74.4123 94.3048C74.1924 94.7447 74.0738 95.2465 74.0233 95.7772L76.0142 95.9668C76.049 95.6015 76.1225 95.3566 76.2012 95.1992L74.4123 94.3048ZM75.0188 96.872C75.2233 96.872 75.4139 96.8813 75.5912 96.899L75.7903 94.909C75.5409 94.884 75.2836 94.872 75.0188 94.872V96.872ZM75.5912 96.899C75.8013 96.92 76.0003 96.941 76.1883 96.9619L76.4092 94.9741C76.2132 94.9523 76.0068 94.9306 75.7903 94.909L75.5912 96.899ZM76.2082 96.9639C77.1534 97.0498 77.8943 97.096 78.4108 97.096V95.096C77.9885 95.096 77.3214 95.0568 76.3893 94.9721L76.2082 96.9639ZM78.4108 97.096C79.4202 97.096 80.3372 96.9517 81.0468 96.5506L80.0627 94.8094C79.791 94.963 79.2786 95.096 78.4108 95.096V97.096ZM81.031 96.5593C81.7739 96.1569 82.3228 95.4901 82.3228 94.56H80.3228C80.3228 94.5853 80.3195 94.5982 80.3179 94.6033C80.3165 94.6081 80.3138 94.6151 80.306 94.6265C80.2896 94.6504 80.2338 94.7166 80.0785 94.8007L81.031 96.5593ZM82.3228 94.56C82.3228 93.6139 81.6976 92.9423 80.9916 92.4978L79.9259 94.1902C80.1415 94.3259 80.2457 94.4347 80.2916 94.4992C80.3129 94.5292 80.3195 94.5467 80.3213 94.5518C80.3227 94.556 80.3228 94.5573 80.3228 94.56H82.3228ZM81.006 92.507C80.3008 92.0459 79.5258 91.8 78.6988 91.8V93.8C79.109 93.8 79.5074 93.9167 79.9115 94.181L81.006 92.507ZM96.3123 97.088L95.743 97.9102L95.7623 97.9236L95.7823 97.936L96.3123 97.088ZM97.3043 97.696L96.7843 98.5502L96.8058 98.5633L96.828 98.5753L97.3043 97.696ZM98.3283 98.688L99.2421 98.2819L99.2421 98.2819L98.3283 98.688ZM97.9123 102.336L98.7016 102.95L98.707 102.943L98.7123 102.936L97.9123 102.336ZM96.1843 103.68L96.583 104.597L96.5905 104.594L96.5981 104.59L96.1843 103.68ZM94.5843 104.064L94.5104 103.067L94.5076 103.067L94.5843 104.064ZM90.9043 103.936L90.7142 104.918L90.72 104.919L90.9043 103.936ZM89.5283 103.584L89.038 104.456L89.0893 104.484L89.1436 104.507L89.5283 103.584ZM87.8003 102.24L88.5374 101.564L88.5374 101.564L87.8003 102.24ZM87.5123 99.648L86.834 98.9132L86.834 98.9132L87.5123 99.648ZM89.2723 99.456L88.7578 100.313L88.8066 100.343L88.8584 100.366L89.2723 99.456ZM89.7523 99.84L90.6732 99.4504L90.65 99.3955L90.6205 99.3439L89.7523 99.84ZM95.5123 99.968L94.6802 100.523L94.7351 100.605L94.8051 100.675L95.5123 99.968ZM95.1283 99.584L95.7283 98.784L95.7131 98.7726L95.6975 98.7618L95.1283 99.584ZM93.9443 98.976L93.5455 99.8931L93.5526 99.8961L93.5596 99.8991L93.9443 98.976ZM92.6323 98.496L92.8999 97.5325L92.8735 97.5251L92.8467 97.5193L92.6323 98.496ZM90.0723 97.632L89.625 98.5264L89.639 98.5334L89.6532 98.54L90.0723 97.632ZM88.1843 96.128L87.3906 96.7364L87.3956 96.743L87.4008 96.7494L88.1843 96.128ZM88.0563 92.16L87.2636 91.5503L87.2601 91.5549L88.0563 92.16ZM89.5283 90.912L89.1658 89.98L89.1225 89.9968L89.081 90.0176L89.5283 90.912ZM91.4163 90.432L91.2247 89.4505L91.2247 89.4505L91.4163 90.432ZM94.8083 90.336L94.6262 91.3193L94.6439 91.3226L94.6617 91.3252L94.8083 90.336ZM96.1203 90.784L95.539 91.5977L95.5737 91.6225L95.6104 91.6443L96.1203 90.784ZM97.5283 91.872L96.8012 92.5586L96.811 92.569L96.8211 92.5791L97.5283 91.872ZM97.9123 93.888L98.8353 94.2726L98.8406 94.2599L98.8456 94.247L97.9123 93.888ZM97.5283 94.368L97.1343 93.4489L97.1197 93.4551L97.1054 93.4618L97.5283 94.368ZM95.9283 94.432L95.2211 95.1391L95.2532 95.1712L95.2881 95.2002L95.9283 94.432ZM95.4803 93.92L94.6407 94.4633L94.671 94.5101L94.7063 94.5532L95.4803 93.92ZM94.8083 93.28L95.0956 92.3222L95.0733 92.3155L95.0508 92.3099L94.8083 93.28ZM93.6883 93.056L93.4758 94.0332L93.4963 94.0376L93.5169 94.0412L93.6883 93.056ZM91.1603 93.216L90.7615 92.2989L90.754 92.3022L90.7464 92.3056L91.1603 93.216ZM91.5123 95.168L91.9422 94.2651L91.9227 94.2559L91.9028 94.2474L91.5123 95.168ZM92.9843 95.712L92.7146 96.675L92.7243 96.6776L92.9843 95.712ZM94.0083 96L93.692 96.9487L93.7446 96.9662L93.7987 96.9778L94.0083 96ZM95.1603 96.448L94.713 97.3424L94.7209 97.3463L94.7288 97.3501L95.1603 96.448ZM95.7823 97.936C95.9587 98.0463 96.2943 98.2519 96.7843 98.5502L97.8242 96.8418C97.3329 96.5427 97.0071 96.3431 96.8422 96.24L95.7823 97.936ZM96.828 98.5753C97.2194 98.7873 97.3623 98.9768 97.4144 99.0941L99.2421 98.2819C98.9529 97.6312 98.4131 97.1593 97.7805 96.8167L96.828 98.5753ZM97.4144 99.0941C97.5037 99.2949 97.5843 99.6683 97.5843 100.288H99.5843C99.5843 99.5423 99.4942 98.8491 99.2421 98.2819L97.4144 99.0941ZM97.5843 100.288C97.5843 100.846 97.4265 101.317 97.1123 101.736L98.7123 102.936C99.294 102.16 99.5843 101.266 99.5843 100.288H97.5843ZM97.1229 101.722C96.7802 102.163 96.3362 102.512 95.7704 102.77L96.5981 104.59C97.4403 104.208 98.1483 103.661 98.7016 102.95L97.1229 101.722ZM95.7855 102.763C95.4058 102.928 94.9833 103.032 94.5104 103.067L94.6581 105.061C95.3372 105.011 95.9814 104.859 96.583 104.597L95.7855 102.763ZM94.5076 103.067C93.9865 103.107 93.3416 103.128 92.5683 103.128V105.128C93.3735 105.128 94.0727 105.106 94.6609 105.061L94.5076 103.067ZM92.5683 103.128C92.2296 103.128 91.7431 103.076 91.0885 102.953L90.72 104.919C91.4307 105.052 92.0536 105.128 92.5683 105.128V103.128ZM91.0943 102.954C90.432 102.826 90.0645 102.724 89.9129 102.661L89.1436 104.507C89.504 104.657 90.0538 104.79 90.7142 104.918L91.0943 102.954ZM90.0185 102.712C89.4164 102.374 88.9268 101.989 88.5374 101.564L87.0631 102.916C87.6123 103.515 88.2748 104.026 89.038 104.456L90.0185 102.712ZM88.5374 101.564C88.1846 101.179 88.0963 100.887 88.0963 100.672H86.0963C86.0963 101.524 86.4772 102.277 87.0631 102.916L88.5374 101.564ZM88.0963 100.672C88.0963 100.484 88.1461 100.424 88.1905 100.383L86.834 98.9132C86.3238 99.3842 86.0963 100.006 86.0963 100.672H88.0963ZM88.1905 100.383C88.2495 100.328 88.3538 100.264 88.6003 100.264V98.264C87.9507 98.264 87.3297 98.4556 86.834 98.9132L88.1905 100.383ZM88.6003 100.264C88.6426 100.264 88.6901 100.273 88.7578 100.313L89.7867 98.5985C89.4277 98.3831 89.0272 98.264 88.6003 98.264V100.264ZM88.8584 100.366C88.8878 100.38 88.9089 100.391 88.9232 100.4C88.9375 100.408 88.9436 100.413 88.9436 100.413C88.9435 100.413 88.9363 100.407 88.9253 100.395C88.914 100.382 88.8991 100.363 88.884 100.336L90.6205 99.3439C90.3907 98.9417 90.0217 98.6982 89.6861 98.5456L88.8584 100.366ZM88.8313 100.23C89.1617 101.011 89.7283 101.602 90.489 101.982L91.3835 100.194C91.0349 100.019 90.8121 99.7787 90.6732 99.4504L88.8313 100.23ZM90.489 101.982C91.1717 102.324 91.8893 102.504 92.6323 102.504V100.504C92.2232 100.504 91.8101 100.407 91.3835 100.194L90.489 101.982ZM92.6323 102.504C93.6776 102.504 94.5771 102.414 95.2492 102.174C95.5904 102.051 95.9406 101.867 96.214 101.574C96.5083 101.258 96.6723 100.857 96.6723 100.416H94.6723C94.6723 100.338 94.7095 100.254 94.7505 100.21C94.7705 100.189 94.7408 100.231 94.5753 100.29C94.234 100.413 93.6136 100.504 92.6323 100.504V102.504ZM96.6723 100.416C96.6723 100.035 96.5612 99.6027 96.2194 99.2609L94.8051 100.675C94.7484 100.618 94.711 100.554 94.6905 100.496C94.6715 100.443 94.6723 100.411 94.6723 100.416H96.6723ZM96.3443 99.4133C96.1769 99.1623 95.9572 98.9557 95.7283 98.784L94.5283 100.384C94.5822 100.424 94.6199 100.458 94.6451 100.483C94.6576 100.496 94.6663 100.505 94.672 100.512C94.6749 100.516 94.6769 100.518 94.6783 100.52C94.6789 100.521 94.6794 100.522 94.6797 100.522C94.6799 100.522 94.68 100.522 94.6801 100.523C94.6802 100.523 94.6802 100.523 94.6802 100.523L96.3443 99.4133ZM95.6975 98.7618C95.3374 98.5125 94.87 98.2784 94.3289 98.0529L93.5596 99.8991C94.0425 100.1 94.3645 100.271 94.559 100.406L95.6975 98.7618ZM94.343 98.0589C93.8232 97.8329 93.3408 97.6549 92.8999 97.5325L92.3646 99.4595C92.6917 99.5504 93.084 99.6924 93.5455 99.8931L94.343 98.0589ZM92.8467 97.5193C92.0441 97.3431 91.2593 97.0785 90.4913 96.724L89.6532 98.54C90.5492 98.9535 91.471 99.2649 92.4178 99.4727L92.8467 97.5193ZM90.5195 96.7376C89.8706 96.4131 89.3599 96.0011 88.9677 95.5066L87.4008 96.7494C87.9899 97.4923 88.7379 98.0829 89.625 98.5264L90.5195 96.7376ZM88.9779 95.5196C88.6391 95.0777 88.4483 94.521 88.4483 93.792H86.4483C86.4483 94.8976 86.748 95.8983 87.3906 96.7364L88.9779 95.5196ZM88.4483 93.792C88.4483 93.4984 88.5511 93.1616 88.8524 92.7651L87.2601 91.5549C86.7508 92.2251 86.4483 92.9763 86.4483 93.792H88.4483ZM88.8489 92.7697C89.1953 92.3194 89.5724 92.008 89.9755 91.8064L89.081 90.0176C88.3748 90.3707 87.7705 90.8913 87.2636 91.5503L88.8489 92.7697ZM89.8907 91.844C90.1859 91.7292 90.7404 91.5827 91.6078 91.4135L91.2247 89.4505C90.3428 89.6226 89.6386 89.7961 89.1658 89.98L89.8907 91.844ZM91.6078 91.4135C92.4933 91.2407 92.9992 91.176 93.2083 91.176V89.176C92.7774 89.176 92.0885 89.282 91.2247 89.4505L91.6078 91.4135ZM93.2083 91.176C93.6275 91.176 94.0991 91.2217 94.6262 91.3193L94.9903 89.3527C94.3654 89.237 93.7704 89.176 93.2083 89.176V91.176ZM94.6617 91.3252C95.1634 91.3995 95.4233 91.5151 95.539 91.5977L96.7015 89.9703C96.2199 89.6262 95.6051 89.4431 94.9548 89.3468L94.6617 91.3252ZM95.6104 91.6443C96.1266 91.9502 96.5169 92.2576 96.8012 92.5586L98.2553 91.1854C97.8142 90.7184 97.2659 90.3005 96.6301 89.9237L95.6104 91.6443ZM96.8211 92.5791C97.0154 92.7734 97.0723 92.9418 97.0723 93.12H99.0723C99.0723 92.3595 98.7664 91.6959 98.2354 91.1649L96.8211 92.5791ZM97.0723 93.12C97.0723 93.2041 97.0528 93.337 96.9789 93.529L98.8456 94.247C98.9851 93.8843 99.0723 93.5052 99.0723 93.12H97.0723ZM96.9892 93.5034C96.96 93.5734 96.9445 93.5889 96.9554 93.5753C96.9679 93.5597 97.0233 93.4964 97.1343 93.4489L97.9222 95.2871C98.432 95.0686 98.6945 94.6106 98.8353 94.2726L96.9892 93.5034ZM97.1054 93.4618C96.9424 93.5378 96.7187 93.592 96.4083 93.592V95.592C96.9511 95.592 97.4741 95.4968 97.9511 95.2742L97.1054 93.4618ZM96.4083 93.592C96.4051 93.592 96.4255 93.5917 96.4605 93.6033C96.4973 93.6156 96.5355 93.6363 96.5684 93.6638L95.2881 95.2002C95.6227 95.4791 96.0199 95.592 96.4083 95.592V93.592ZM96.6354 93.7249C96.5653 93.6549 96.4417 93.5159 96.2542 93.2868L94.7063 94.5532C94.9028 94.7934 95.0778 94.9958 95.2211 95.1391L96.6354 93.7249ZM96.3198 93.3767C96.0606 92.9762 95.67 92.4945 95.0956 92.3222L94.5209 94.2378C94.43 94.2106 94.4067 94.1741 94.4466 94.2121C94.4842 94.248 94.5506 94.324 94.6407 94.4633L96.3198 93.3767ZM95.0508 92.3099C94.759 92.2369 94.3572 92.1573 93.8596 92.0708L93.5169 94.0412C94.0006 94.1253 94.3455 94.1951 94.5657 94.2501L95.0508 92.3099ZM93.9007 92.0788C93.4265 91.9757 92.9918 91.896 92.6963 91.896V93.896C92.6913 93.896 92.7061 93.8959 92.7485 93.9004C92.7886 93.9047 92.8427 93.9119 92.913 93.9232C93.0541 93.946 93.2404 93.982 93.4758 94.0332L93.9007 92.0788ZM92.6963 91.896C92.0253 91.896 91.3776 92.0311 90.7615 92.2989L91.559 94.1331C91.9242 93.9743 92.3006 93.896 92.6963 93.896V91.896ZM90.7464 92.3056C90.0949 92.6018 89.4563 93.1639 89.4563 94.08H91.4563C91.4563 94.0993 91.4527 94.1286 91.4409 94.1613C91.4293 94.1936 91.4148 94.2147 91.4075 94.2237C91.4013 94.2313 91.4057 94.2235 91.4323 94.2046C91.4592 94.1854 91.5043 94.1581 91.5741 94.1264L90.7464 92.3056ZM89.4563 94.08C89.4563 95.1617 90.3582 95.7647 91.1217 96.0886L91.9028 94.2474C91.6167 94.1261 91.4858 94.0249 91.4378 93.9755C91.4179 93.955 91.4244 93.9558 91.4356 93.9807C91.448 94.0085 91.4563 94.0445 91.4563 94.08H89.4563ZM91.0823 96.0709C91.5875 96.3114 92.1325 96.512 92.7146 96.675L93.2539 94.749C92.7694 94.6134 92.333 94.4513 91.9422 94.2651L91.0823 96.0709ZM92.7243 96.6776C93.2907 96.8301 93.5985 96.9175 93.692 96.9487L94.3245 95.0513C94.162 94.9972 93.7871 94.8925 93.2442 94.7464L92.7243 96.6776ZM93.7987 96.9778C93.9767 97.0159 94.2735 97.1227 94.713 97.3424L95.6075 95.5536C95.1083 95.304 94.6371 95.1121 94.2178 95.0222L93.7987 96.9778ZM94.7288 97.3501C95.1967 97.5739 95.5276 97.761 95.743 97.9102L96.8815 96.2658C96.5422 96.031 96.1051 95.7914 95.5917 95.5459L94.7288 97.3501ZM101.666 92.928L101.525 93.9179L101.554 93.9221L101.583 93.9245L101.666 92.928ZM100.93 92.544L100.149 93.1687L100.168 93.1914L100.187 93.213L100.93 92.544ZM100.77 91.296L99.8758 90.8488L99.8524 90.8957L99.8339 90.9449L100.77 91.296ZM101.122 90.848L100.476 90.0846L100.471 90.0887L101.122 90.848ZM102.242 90.176L101.878 89.2448L101.853 89.2545L101.828 89.2656L102.242 90.176ZM103.298 89.472L102.506 88.8623L102.506 88.8623L103.298 89.472ZM103.554 87.072L102.558 87.1625L102.562 87.207L102.57 87.2509L103.554 87.072ZM104.034 85.472L103.468 84.648L103.468 84.648L104.034 85.472ZM106.338 85.536L105.516 86.1052L105.53 86.1258L105.546 86.1457L106.338 85.536ZM106.562 88.96L107.555 89.084L107.555 89.0791L106.562 88.96ZM106.146 90.336L105.261 89.8703L104.49 91.336H106.146V90.336ZM107.618 90.272L107.573 89.273L107.564 89.2734L107.556 89.2739L107.618 90.272ZM110.53 90.496L109.961 91.3182L109.983 91.3335L110.006 91.3477L110.53 90.496ZM110.658 92.224L109.915 91.555L109.915 91.555L110.658 92.224ZM109.826 92.64L109.652 91.6552L109.609 91.6628L109.567 91.6742L109.826 92.64ZM106.114 93.056L106.088 92.0564L105.163 92.081L105.116 93.0048L106.114 93.056ZM106.338 99.552L107.321 99.3677L107.318 99.3526L107.315 99.3376L106.338 99.552ZM106.978 101.056L106.247 101.738L106.271 101.764L106.296 101.787L106.978 101.056ZM109.154 101.376L108.783 100.448L108.765 100.455L108.748 100.462L109.154 101.376ZM109.506 101.216L109.002 100.352L108.891 100.417L108.799 100.509L109.506 101.216ZM110.85 101.28L110.018 101.835L110.038 101.865L110.061 101.894L110.85 101.28ZM110.114 103.552L110.629 104.409L110.639 104.403L110.649 104.397L110.114 103.552ZM104.77 103.136L104.106 103.883L104.117 103.893L104.128 103.903L104.77 103.136ZM103.394 100.448L104.385 100.315L104.38 100.277L104.372 100.24L103.394 100.448ZM103.202 93.056L104.2 93.1204L104.263 92.141L103.285 92.0595L103.202 93.056ZM101.808 91.9381C101.728 91.9267 101.7 91.9047 101.674 91.875L100.187 93.213C100.544 93.6099 101.007 93.844 101.525 93.9179L101.808 91.9381ZM101.711 91.9193C101.696 91.9001 101.674 91.8702 101.674 91.776H99.6743C99.6743 92.2792 99.8234 92.7612 100.149 93.1687L101.711 91.9193ZM101.674 91.776C101.674 91.7698 101.676 91.7295 101.707 91.6471L99.8339 90.9449C99.7368 91.2038 99.6743 91.4836 99.6743 91.776H101.674ZM101.665 91.7432C101.689 91.6955 101.722 91.6512 101.773 91.6073L100.471 90.0887C100.224 90.3008 100.023 90.5552 99.8758 90.8488L101.665 91.7432ZM101.768 91.6114C101.953 91.4552 102.239 91.2762 102.656 91.0864L101.828 89.2656C101.307 89.5025 100.846 89.7714 100.476 90.0846L101.768 91.6114ZM102.607 91.1072C103.187 90.8801 103.724 90.5584 104.091 90.0817L102.506 88.8623C102.446 88.9403 102.279 89.0879 101.878 89.2448L102.607 91.1072ZM104.091 90.0817C104.326 89.7758 104.449 89.4113 104.518 89.072C104.589 88.7231 104.618 88.3286 104.618 87.904H102.618C102.618 88.2474 102.594 88.4983 102.558 88.672C102.521 88.8553 102.484 88.8908 102.506 88.8623L104.091 90.0817ZM104.618 87.904C104.618 87.5429 104.594 87.2029 104.538 86.8931L102.57 87.2509C102.599 87.4105 102.618 87.6251 102.618 87.904H104.618ZM104.55 86.9815C104.53 86.7564 104.522 86.6105 104.522 86.528H102.522C102.522 86.7015 102.536 86.9183 102.558 87.1625L104.55 86.9815ZM104.522 86.528C104.522 86.4146 104.543 86.3638 104.55 86.3483C104.555 86.3375 104.564 86.3212 104.601 86.296L103.468 84.648C102.816 85.0963 102.522 85.7803 102.522 86.528H104.522ZM104.601 86.296C104.762 86.1854 104.955 86.12 105.218 86.12V84.12C104.585 84.12 103.989 84.2892 103.468 84.648L104.601 86.296ZM105.218 86.12C105.42 86.12 105.525 86.1462 105.566 86.1614C105.596 86.1727 105.557 86.1636 105.516 86.1052L107.16 84.9668C106.686 84.2819 105.887 84.12 105.218 84.12V86.12ZM105.546 86.1457C105.526 86.1206 105.563 86.1567 105.599 86.332C105.634 86.4991 105.658 86.7407 105.658 87.072H107.658C107.658 86.6566 107.629 86.2689 107.557 85.924C107.487 85.5873 107.364 85.2288 107.131 84.9263L105.546 86.1457ZM105.658 87.072C105.658 87.7703 105.627 88.358 105.569 88.8409L107.555 89.0791C107.625 88.4953 107.658 87.8244 107.658 87.072H105.658ZM105.57 88.836C105.519 89.2435 105.412 89.584 105.261 89.8703L107.031 90.8017C107.307 90.2773 107.477 89.7005 107.555 89.084L105.57 88.836ZM106.146 91.336C106.479 91.336 106.997 91.3128 107.681 91.2701L107.556 89.2739C106.874 89.3165 106.411 89.336 106.146 89.336V91.336ZM107.664 91.271C108.604 91.2282 109.233 91.208 109.57 91.208V89.208C109.182 89.208 108.51 89.2304 107.573 89.273L107.664 91.271ZM109.57 91.208C109.746 91.208 109.864 91.2508 109.961 91.3182L111.099 89.6738C110.642 89.3572 110.12 89.208 109.57 89.208V91.208ZM110.006 91.3477C110.016 91.3537 110.014 91.3538 110.005 91.3451C109.996 91.336 109.983 91.3209 109.972 91.3001C109.96 91.2792 109.953 91.2594 109.949 91.2442C109.945 91.2296 109.946 91.2244 109.946 91.232H111.946C111.946 90.5573 111.621 89.9931 111.054 89.6443L110.006 91.3477ZM109.946 91.232C109.946 91.3884 109.929 91.4849 109.914 91.5372C109.9 91.5863 109.892 91.5806 109.915 91.555L111.402 92.893C111.83 92.4168 111.946 91.7944 111.946 91.232H109.946ZM109.915 91.555C109.91 91.5606 109.858 91.6189 109.652 91.6552L110 93.6248C110.52 93.5331 111.023 93.3141 111.402 92.893L109.915 91.555ZM109.567 91.6742C108.805 91.8786 107.659 92.0144 106.088 92.0564L106.141 94.0556C107.769 94.0122 109.098 93.8707 110.085 93.6058L109.567 91.6742ZM105.116 93.0048C105.072 93.8565 105.05 94.7805 105.05 95.776H107.05C107.05 94.8088 107.071 93.9195 107.113 93.1072L105.116 93.0048ZM105.05 95.776C105.05 97.4417 105.146 98.7857 105.362 99.7664L107.315 99.3376C107.146 98.569 107.05 97.3957 107.05 95.776H105.05ZM105.355 99.7363C105.5 100.506 105.764 101.22 106.247 101.738L107.709 100.374C107.595 100.252 107.433 99.9638 107.321 99.3677L105.355 99.7363ZM106.296 101.787C106.866 102.319 107.619 102.504 108.386 102.504V100.504C107.916 100.504 107.731 100.391 107.661 100.325L106.296 101.787ZM108.386 102.504C108.78 102.504 109.191 102.454 109.56 102.29L108.748 100.462C108.733 100.469 108.632 100.504 108.386 100.504V102.504ZM109.526 102.304C109.637 102.26 109.737 102.218 109.816 102.182C109.855 102.165 109.901 102.143 109.946 102.118C109.955 102.114 110.091 102.046 110.213 101.923L108.799 100.509C108.82 100.488 108.839 100.471 108.855 100.458C108.87 100.444 108.884 100.433 108.896 100.424C108.919 100.407 108.938 100.394 108.95 100.386C108.964 100.377 108.974 100.371 108.982 100.367C108.989 100.363 108.995 100.359 108.998 100.358C109.005 100.354 109.008 100.353 109.005 100.354C109.002 100.355 108.997 100.358 108.988 100.362C108.971 100.37 108.945 100.381 108.91 100.396C108.874 100.411 108.832 100.428 108.783 100.448L109.526 102.304ZM110.01 102.08C110.17 101.987 110.23 101.992 110.21 101.992V99.992C109.764 99.992 109.355 100.147 109.002 100.352L110.01 102.08ZM110.21 101.992C110.256 101.992 110.237 102 110.184 101.976C110.157 101.964 110.125 101.945 110.093 101.918C110.062 101.892 110.037 101.862 110.018 101.835L111.682 100.725C111.315 100.174 110.733 99.992 110.21 99.992V101.992ZM110.061 101.894C110.051 101.881 110.053 101.877 110.058 101.896C110.064 101.917 110.074 101.964 110.074 102.048H112.074C112.074 101.576 111.963 101.082 111.64 100.666L110.061 101.894ZM110.074 102.048C110.074 102.21 110.018 102.429 109.579 102.707L110.649 104.397C111.49 103.864 112.074 103.081 112.074 102.048H110.074ZM109.6 102.695C109.16 102.959 108.532 103.128 107.65 103.128V105.128C108.774 105.128 109.789 104.913 110.629 104.409L109.6 102.695ZM107.65 103.128C106.73 103.128 106.004 102.865 105.412 102.369L104.128 103.903C105.115 104.73 106.309 105.128 107.65 105.128V103.128ZM105.435 102.389C104.862 101.88 104.506 101.21 104.385 100.315L102.403 100.581C102.581 101.905 103.143 103.027 104.106 103.883L105.435 102.389ZM104.372 100.24C104.181 99.3386 104.074 98.012 104.074 96.224H102.074C102.074 98.0627 102.181 99.552 102.416 100.656L104.372 100.24ZM104.074 96.224C104.074 95.4657 104.115 94.4339 104.2 93.1204L102.204 92.9916C102.118 94.3235 102.074 95.4037 102.074 96.224H104.074ZM103.285 92.0595L101.749 91.9315L101.583 93.9245L103.119 94.0525L103.285 92.0595Z" fill="#4DD0E1" mask="url(#path-9-outside-1_104_19)"/>
</g>
<defs>
<filter id="filter0_dd_104_19" x="19" y="35" width="76" height="53" filterUnits="userSpaceOnUse" color-interpolation-filters="sRGB">
<feFlood flood-opacity="0" result="BackgroundImageFix"/>
<feColorMatrix in="SourceAlpha" type="matrix" values="0 0 0 0 0 0 0 0 0 0 0 0 0 0 0 0 0 0 127 0" result="hardAlpha"/>
<feOffset dy="4"/>
<feGaussianBlur stdDeviation="2"/>
<feComposite in2="hardAlpha" operator="out"/>
<feColorMatrix type="matrix" values="0 0 0 0 0 0 0 0 0 0 0 0 0 0 0 0 0 0 0.25 0"/>
<feBlend mode="normal" in2="BackgroundImageFix" result="effect1_dropShadow_104_19"/>
<feColorMatrix in="SourceAlpha" type="matrix" values="0 0 0 0 0 0 0 0 0 0 0 0 0 0 0 0 0 0 127 0" result="hardAlpha"/>
<feOffset dy="4"/>
<feGaussianBlur stdDeviation="2"/>
<feComposite in2="hardAlpha" operator="out"/>
<feColorMatrix type="matrix" values="0 0 0 0 0 0 0 0 0 0 0 0 0 0 0 0 0 0 0.25 0"/>
<feBlend mode="normal" in2="effect1_dropShadow_104_19" result="effect2_dropShadow_104_19"/>
<feBlend mode="normal" in="SourceGraphic" in2="effect2_dropShadow_104_19" result="shape"/>
</filter>
<filter id="filter1_dd_104_19" x="21" y="4" width="72" height="19" filterUnits="userSpaceOnUse" color-interpolation-filters="sRGB">
<feFlood flood-opacity="0" result="BackgroundImageFix"/>
<feColorMatrix in="SourceAlpha" type="matrix" values="0 0 0 0 0 0 0 0 0 0 0 0 0 0 0 0 0 0 127 0" result="hardAlpha"/>
<feOffset dy="4"/>
<feGaussianBlur stdDeviation="2"/>
<feComposite in2="hardAlpha" operator="out"/>
<feColorMatrix type="matrix" values="0 0 0 0 0 0 0 0 0 0 0 0 0 0 0 0 0 0 0.25 0"/>
<feBlend mode="normal" in2="BackgroundImageFix" result="effect1_dropShadow_104_19"/>
<feColorMatrix in="SourceAlpha" type="matrix" values="0 0 0 0 0 0 0 0 0 0 0 0 0 0 0 0 0 0 127 0" result="hardAlpha"/>
<feOffset dy="4"/>
<feGaussianBlur stdDeviation="2"/>
<feComposite in2="hardAlpha" operator="out"/>
<feColorMatrix type="matrix" values="0 0 0 0 0 0 0 0 0 0 0 0 0 0 0 0 0 0 0.25 0"/>
<feBlend mode="normal" in2="effect1_dropShadow_104_19" result="effect2_dropShadow_104_19"/>
<feBlend mode="normal" in="SourceGraphic" in2="effect2_dropShadow_104_19" result="shape"/>
</filter>
<filter id="filter2_dd_104_19" x="26" y="8" width="62" height="11" filterUnits="userSpaceOnUse" color-interpolation-filters="sRGB">
<feFlood flood-opacity="0" result="BackgroundImageFix"/>
<feColorMatrix in="SourceAlpha" type="matrix" values="0 0 0 0 0 0 0 0 0 0 0 0 0 0 0 0 0 0 127 0" result="hardAlpha"/>
<feOffset dy="4"/>
<feGaussianBlur stdDeviation="2"/>
<feComposite in2="hardAlpha" operator="out"/>
<feColorMatrix type="matrix" values="0 0 0 0 0 0 0 0 0 0 0 0 0 0 0 0 0 0 0.25 0"/>
<feBlend mode="normal" in2="BackgroundImageFix" result="effect1_dropShadow_104_19"/>
<feColorMatrix in="SourceAlpha" type="matrix" values="0 0 0 0 0 0 0 0 0 0 0 0 0 0 0 0 0 0 127 0" result="hardAlpha"/>
<feOffset dy="4"/>
<feGaussianBlur stdDeviation="2"/>
<feComposite in2="hardAlpha" operator="out"/>
<feColorMatrix type="matrix" values="0 0 0 0 0 0 0 0 0 0 0 0 0 0 0 0 0 0 0.25 0"/>
<feBlend mode="normal" in2="effect1_dropShadow_104_19" result="effect2_dropShadow_104_19"/>
<feBlend mode="normal" in="SourceGraphic" in2="effect2_dropShadow_104_19" result="shape"/>
</filter>
<filter id="filter3_dd_104_19" x="24" y="0" width="66" height="86" filterUnits="userSpaceOnUse" color-interpolation-filters="sRGB">
<feFlood flood-opacity="0" result="BackgroundImageFix"/>
<feColorMatrix in="SourceAlpha" type="matrix" values="0 0 0 0 0 0 0 0 0 0 0 0 0 0 0 0 0 0 127 0" result="hardAlpha"/>
<feOffset dy="4"/>
<feGaussianBlur stdDeviation="2"/>
<feComposite in2="hardAlpha" operator="out"/>
<feColorMatrix type="matrix" values="0 0 0 0 0 0 0 0 0 0 0 0 0 0 0 0 0 0 0.25 0"/>
<feBlend mode="normal" in2="BackgroundImageFix" result="effect1_dropShadow_104_19"/>
<feColorMatrix in="SourceAlpha" type="matrix" values="0 0 0 0 0 0 0 0 0 0 0 0 0 0 0 0 0 0 127 0" result="hardAlpha"/>
<feOffset dy="4"/>
<feGaussianBlur stdDeviation="2"/>
<feComposite in2="hardAlpha" operator="out"/>
<feColorMatrix type="matrix" values="0 0 0 0 0 0 0 0 0 0 0 0 0 0 0 0 0 0 0.25 0"/>
<feBlend mode="normal" in2="effect1_dropShadow_104_19" result="effect2_dropShadow_104_19"/>
<feBlend mode="normal" in="SourceGraphic" in2="effect2_dropShadow_104_19" result="shape"/>
</filter>
<filter id="filter4_dd_104_19" x="32.6174" y="5.71545" width="48.8105" height="23.2412" filterUnits="userSpaceOnUse" color-interpolation-filters="sRGB">
<feFlood flood-opacity="0" result="BackgroundImageFix"/>
<feColorMatrix in="SourceAlpha" type="matrix" values="0 0 0 0 0 0 0 0 0 0 0 0 0 0 0 0 0 0 127 0" result="hardAlpha"/>
<feOffset dy="4"/>
<feGaussianBlur stdDeviation="2"/>
<feComposite in2="hardAlpha" operator="out"/>
<feColorMatrix type="matrix" values="0 0 0 0 0 0 0 0 0 0 0 0 0 0 0 0 0 0 0.25 0"/>
<feBlend mode="normal" in2="BackgroundImageFix" result="effect1_dropShadow_104_19"/>
<feColorMatrix in="SourceAlpha" type="matrix" values="0 0 0 0 0 0 0 0 0 0 0 0 0 0 0 0 0 0 127 0" result="hardAlpha"/>
<feOffset dy="4"/>
<feGaussianBlur stdDeviation="2"/>
<feComposite in2="hardAlpha" operator="out"/>
<feColorMatrix type="matrix" values="0 0 0 0 0 0 0 0 0 0 0 0 0 0 0 0 0 0 0.25 0"/>
<feBlend mode="normal" in2="effect1_dropShadow_104_19" result="effect2_dropShadow_104_19"/>
<feBlend mode="normal" in="SourceGraphic" in2="effect2_dropShadow_104_19" result="shape"/>
</filter>
<filter id="filter5_dd_104_19" x="48.4882" y="26.6721" width="17.069" height="15.6206" filterUnits="userSpaceOnUse" color-interpolation-filters="sRGB">
<feFlood flood-opacity="0" result="BackgroundImageFix"/>
<feColorMatrix in="SourceAlpha" type="matrix" values="0 0 0 0 0 0 0 0 0 0 0 0 0 0 0 0 0 0 127 0" result="hardAlpha"/>
<feOffset dy="4"/>
<feGaussianBlur stdDeviation="2"/>
<feComposite in2="hardAlpha" operator="out"/>
<feColorMatrix type="matrix" values="0 0 0 0 0 0 0 0 0 0 0 0 0 0 0 0 0 0 0.25 0"/>
<feBlend mode="normal" in2="BackgroundImageFix" result="effect1_dropShadow_104_19"/>
<feColorMatrix in="SourceAlpha" type="matrix" values="0 0 0 0 0 0 0 0 0 0 0 0 0 0 0 0 0 0 127 0" result="hardAlpha"/>
<feOffset dy="4"/>
<feGaussianBlur stdDeviation="2"/>
<feComposite in2="hardAlpha" operator="out"/>
<feColorMatrix type="matrix" values="0 0 0 0 0 0 0 0 0 0 0 0 0 0 0 0 0 0 0.25 0"/>
<feBlend mode="normal" in2="effect1_dropShadow_104_19" result="effect2_dropShadow_104_19"/>
<feBlend mode="normal" in="SourceGraphic" in2="effect2_dropShadow_104_19" result="shape"/>
</filter>
<filter id="filter6_dd_104_19" x="44" y="21" width="26" height="16" filterUnits="userSpaceOnUse" color-interpolation-filters="sRGB">
<feFlood flood-opacity="0" result="BackgroundImageFix"/>
<feColorMatrix in="SourceAlpha" type="matrix" values="0 0 0 0 0 0 0 0 0 0 0 0 0 0 0 0 0 0 127 0" result="hardAlpha"/>
<feOffset dy="4"/>
<feGaussianBlur stdDeviation="2"/>
<feComposite in2="hardAlpha" operator="out"/>
<feColorMatrix type="matrix" values="0 0 0 0 0 0 0 0 0 0 0 0 0 0 0 0 0 0 0.25 0"/>
<feBlend mode="normal" in2="BackgroundImageFix" result="effect1_dropShadow_104_19"/>
<feColorMatrix in="SourceAlpha" type="matrix" values="0 0 0 0 0 0 0 0 0 0 0 0 0 0 0 0 0 0 127 0" result="hardAlpha"/>
<feOffset dy="4"/>
<feGaussianBlur stdDeviation="2"/>
<feComposite in2="hardAlpha" operator="out"/>
<feColorMatrix type="matrix" values="0 0 0 0 0 0 0 0 0 0 0 0 0 0 0 0 0 0 0.25 0"/>
<feBlend mode="normal" in2="effect1_dropShadow_104_19" result="effect2_dropShadow_104_19"/>
<feBlend mode="normal" in="SourceGraphic" in2="effect2_dropShadow_104_19" result="shape"/>
</filter>
<filter id="filter7_dd_104_19" x="34.8846" y="11.4309" width="35.207" height="19.4309" filterUnits="userSpaceOnUse" color-interpolation-filters="sRGB">
<feFlood flood-opacity="0" result="BackgroundImageFix"/>
<feColorMatrix in="SourceAlpha" type="matrix" values="0 0 0 0 0 0 0 0 0 0 0 0 0 0 0 0 0 0 127 0" result="hardAlpha"/>
<feOffset dy="4"/>
<feGaussianBlur stdDeviation="2"/>
<feComposite in2="hardAlpha" operator="out"/>
<feColorMatrix type="matrix" values="0 0 0 0 0 0 0 0 0 0 0 0 0 0 0 0 0 0 0.25 0"/>
<feBlend mode="normal" in2="BackgroundImageFix" result="effect1_dropShadow_104_19"/>
<feColorMatrix in="SourceAlpha" type="matrix" values="0 0 0 0 0 0 0 0 0 0 0 0 0 0 0 0 0 0 127 0" result="hardAlpha"/>
<feOffset dy="4"/>
<feGaussianBlur stdDeviation="2"/>
<feComposite in2="hardAlpha" operator="out"/>
<feColorMatrix type="matrix" values="0 0 0 0 0 0 0 0 0 0 0 0 0 0 0 0 0 0 0.25 0"/>
<feBlend mode="normal" in2="effect1_dropShadow_104_19" result="effect2_dropShadow_104_19"/>
<feBlend mode="normal" in="SourceGraphic" in2="effect2_dropShadow_104_19" result="shape"/>
</filter>
<filter id="filter8_dd_104_19" x="0.304001" y="83.744" width="114.77" height="35.424" filterUnits="userSpaceOnUse" color-interpolation-filters="sRGB">
<feFlood flood-opacity="0" result="BackgroundImageFix"/>
<feColorMatrix in="SourceAlpha" type="matrix" values="0 0 0 0 0 0 0 0 0 0 0 0 0 0 0 0 0 0 127 0" result="hardAlpha"/>
<feOffset dy="4"/>
<feGaussianBlur stdDeviation="2"/>
<feComposite in2="hardAlpha" operator="out"/>
<feColorMatrix type="matrix" values="0 0 0 0 0 0 0 0 0 0 0 0 0 0 0 0 0 0 0.25 0"/>
<feBlend mode="normal" in2="BackgroundImageFix" result="effect1_dropShadow_104_19"/>
<feColorMatrix in="SourceAlpha" type="matrix" values="0 0 0 0 0 0 0 0 0 0 0 0 0 0 0 0 0 0 127 0" result="hardAlpha"/>
<feOffset dy="4"/>
<feGaussianBlur stdDeviation="2"/>
<feComposite in2="hardAlpha" operator="out"/>
<feColorMatrix type="matrix" values="0 0 0 0 0 0 0 0 0 0 0 0 0 0 0 0 0 0 0.25 0"/>
<feBlend mode="normal" in2="effect1_dropShadow_104_19" result="effect2_dropShadow_104_19"/>
<feBlend mode="normal" in="SourceGraphic" in2="effect2_dropShadow_104_19" result="shape"/>
</filter>
</defs>
</svg>
